<svg width="246" height="49" viewBox="0 0 246 49" fill="none" xmlns="http://www.w3.org/2000/svg">
<path d="M42.0525 3.06017C42.8705 3.08805 43.6024 3.34132 44.1926 3.76422C44.7549 4.18711 45.0941 4.74943 45.122 5.36983C45.1778 6.49678 45.2638 7.62372 45.3195 8.75067C45.5728 13.7092 45.6867 18.6934 45.6867 23.624C45.6867 29.6793 45.4892 35.8206 45.1244 41.8504C45.0965 42.4429 44.7572 43.0331 44.1949 43.456C43.6326 43.8789 42.8705 44.1322 42.0549 44.16C29.3215 44.6387 16.393 44.6387 3.63179 44.16C2.81388 44.1322 2.08195 43.8789 1.49175 43.456C0.92944 43.0331 0.590194 42.4708 0.562311 41.8504C0.195182 35.7951 0 29.6538 0 23.624C0 18.6934 0.111533 13.7092 0.367129 8.75067C0.422896 7.62372 0.478662 6.49678 0.564635 5.36983C0.592518 4.77731 0.931764 4.215 1.49408 3.76422C2.05639 3.34132 2.81853 3.08805 3.63411 3.06017C16.3675 2.58151 29.296 2.58151 42.0572 3.06017H42.0525Z" fill="#D53B2F"/>
<path d="M92.2772 3.06017C93.0951 3.08805 93.827 3.34132 94.4172 3.76422C94.9795 4.18711 95.3188 4.74943 95.3466 5.36983C95.4024 6.49678 95.4884 7.62372 95.5441 8.75067C95.7974 13.7092 95.9113 18.6934 95.9113 23.624C95.9113 29.6793 95.7138 35.8206 95.349 41.8504C95.3211 42.4429 94.9818 43.0331 94.4195 43.456C93.8572 43.8789 93.0951 44.1322 92.2795 44.16C79.5461 44.6387 66.6176 44.6387 53.8564 44.16C53.0385 44.1322 52.3066 43.8789 51.7164 43.456C51.154 43.0331 50.8148 42.4708 50.7869 41.8504C50.4198 35.7951 50.2246 29.6538 50.2246 23.624C50.2246 18.6934 50.3361 13.7092 50.5917 8.75067C50.6475 7.62372 50.7033 6.49678 50.7892 5.36983C50.8171 4.77731 51.1564 4.215 51.7187 3.76422C52.281 3.34132 53.0431 3.08805 53.8587 3.06017C66.5921 2.58151 79.5206 2.58151 92.2818 3.06017H92.2772Z" fill="#A3A3A3"/>
<path d="M22.841 10.4421C26.503 10.4421 30.1371 10.5258 33.7991 10.6954C36.0809 10.8069 37.884 12.6101 37.9955 14.8918C38.2767 20.6939 38.2767 26.4982 37.9955 32.3003C37.884 34.582 36.053 36.3852 33.7991 36.4967C30.1371 36.6663 26.503 36.75 22.841 36.75C19.179 36.75 15.5449 36.6663 11.8829 36.4967C9.6011 36.3852 7.79799 34.582 7.68645 32.3003C7.4053 26.4982 7.4053 20.6939 7.68645 14.8918C7.79799 12.6101 9.62898 10.8069 11.8829 10.6954C15.517 10.5258 19.179 10.4421 22.841 10.4421ZM12.0246 13.6812C11.6575 13.7091 11.3206 13.8509 11.0673 14.1041C10.814 14.3574 10.6723 14.6967 10.6444 15.0615C10.3632 20.7241 10.3632 26.4982 10.6444 32.1608C10.6723 32.528 10.814 32.8649 11.0673 33.1182C11.3206 33.3714 11.6598 33.5132 12.0246 33.5411C15.603 33.7107 19.265 33.7943 22.841 33.7943C26.417 33.7943 30.0813 33.7107 33.6574 33.5411C34.0245 33.5132 34.3614 33.3714 34.6147 33.1182C34.8679 32.8649 35.0097 32.5257 35.0376 32.1608C35.3187 26.4982 35.3187 20.7241 35.0376 15.0615C35.0097 14.6943 34.8679 14.3574 34.6147 14.1041C34.3614 13.8509 34.0222 13.7091 33.6574 13.6812C30.079 13.5116 26.417 13.428 22.841 13.428C19.265 13.428 15.6006 13.5116 12.0246 13.6812Z" fill="white"/>
<path d="M89.7544 33.4993H89.7567C90.2772 33.4993 90.7001 33.9222 90.7001 34.4427V35.5789C90.7001 36.0994 90.2772 36.5223 89.7567 36.5223H57.6446C57.1241 36.5223 56.7012 36.0994 56.7012 35.5789V34.4427C56.7012 33.9222 57.1241 33.4993 57.6446 33.4993C58.165 33.4993 58.5879 33.0764 58.5879 32.5559V15.0731C58.7041 12.7704 60.5514 10.9301 62.8541 10.8232H87.8676C88.3881 10.8232 88.811 11.2461 88.811 11.7666V32.5559C88.811 33.0764 89.2339 33.4993 89.7544 33.4993ZM85.788 32.5559V14.785C85.788 14.2645 85.3651 13.8416 84.8446 13.8416H62.9912C62.631 13.8579 62.2894 14.0089 62.0315 14.2645C61.7736 14.5201 61.6226 14.8617 61.604 15.2241V32.5559C61.604 33.0764 62.0269 33.4993 62.5474 33.4993H84.8423C85.3628 33.4993 85.7857 33.0764 85.7857 32.5559H85.788Z" fill="white"/>
<path d="M124.568 18.7769C124.485 20.4615 123.132 21.8092 121.448 21.8859C118.741 22.0091 116.036 22.0718 113.329 22.0718C110.622 22.0718 107.917 22.0091 105.21 21.8859C103.526 21.8092 102.173 20.4615 102.09 18.7769C101.874 14.4783 101.874 10.1796 102.09 5.87861C102.173 4.19399 103.526 2.84631 105.21 2.76963C107.915 2.64648 110.622 2.58374 113.329 2.58374C116.036 2.58374 118.741 2.64648 121.448 2.76963C123.132 2.84631 124.485 4.19399 124.568 5.87861C124.784 10.1773 124.784 14.4783 124.568 18.7769ZM122.359 5.99014C122.345 5.72525 122.235 5.47662 122.047 5.28841C121.859 5.1002 121.61 4.99099 121.346 4.97937C118.685 4.85855 115.99 4.79581 113.329 4.79581C110.669 4.79581 107.973 4.85855 105.313 4.97937C105.048 4.99099 104.799 5.1002 104.611 5.28841C104.423 5.47662 104.311 5.72525 104.3 5.99014C104.088 10.1959 104.088 14.462 104.3 18.6677C104.313 18.9326 104.423 19.1812 104.611 19.3694C104.799 19.5576 105.048 19.6669 105.313 19.6785C107.973 19.8016 110.669 19.862 113.329 19.862C115.99 19.862 118.685 19.7993 121.346 19.6785C121.61 19.6669 121.859 19.5576 122.047 19.3694C122.235 19.1812 122.347 18.9326 122.359 18.6677C122.57 14.462 122.57 10.1982 122.359 5.99014Z" fill="black"/>
<path d="M149.691 4.02202V20.6335C149.691 21.2376 149.201 21.7255 148.599 21.7255H148.574C147.97 21.7255 147.482 21.2353 147.482 20.6335V14.527C147.482 13.9229 146.991 13.4349 146.389 13.4349H130.889C130.285 13.4349 129.797 13.9252 129.797 14.527V20.6335C129.797 21.2376 129.306 21.7255 128.705 21.7255H128.679C128.075 21.7255 127.587 21.2353 127.587 20.6335V4.02202C127.587 3.41789 128.077 2.92993 128.679 2.92993H128.705C129.309 2.92993 129.797 3.42021 129.797 4.02202V10.1284C129.797 10.7326 130.287 11.2205 130.889 11.2205H146.389C146.994 11.2205 147.482 10.7303 147.482 10.1284V4.02202C147.482 3.41789 147.972 2.92993 148.574 2.92993H148.599C149.203 2.92993 149.691 3.42021 149.691 4.02202Z" fill="black"/>
<path d="M178.081 6.23422V10.1309C178.081 10.735 178.571 11.223 179.173 11.223H197.005C197.609 11.223 198.097 11.7133 198.097 12.3151V12.3406C198.097 12.9448 197.606 13.4327 197.005 13.4327H179.173C178.569 13.4327 178.081 13.923 178.081 14.5248V18.4215C178.081 19.0257 178.571 19.5136 179.173 19.5136H197.005C197.609 19.5136 198.097 20.0039 198.097 20.6057V20.6313C198.097 21.2354 197.606 21.7234 197.005 21.7234H176.961C176.357 21.7234 175.869 21.2331 175.869 20.6313V4.01983C175.869 3.41569 176.359 2.92773 176.961 2.92773H197.005C197.609 2.92773 198.097 3.41801 198.097 4.01983V4.04539C198.097 4.64952 197.606 5.13748 197.005 5.13748H179.173C178.569 5.13748 178.081 5.62776 178.081 6.22957V6.23422Z" fill="black"/>
<path d="M222.03 3.43195V21.2029C222.03 21.4794 221.535 21.7024 220.926 21.7024C220.317 21.7024 219.822 21.4794 219.822 21.2029V5.14212H219.195L204.15 21.3957C203.978 21.5816 203.576 21.7024 203.132 21.7024H201.057C200.448 21.7024 199.953 21.4794 199.953 21.2029V3.43195C199.953 3.15544 200.448 2.93237 201.057 2.93237C201.666 2.93237 202.161 3.15544 202.161 3.43195V19.4927H202.897L217.833 3.23909C218.005 3.0532 218.407 2.93237 218.853 2.93237H220.926C221.535 2.93237 222.03 3.15544 222.03 3.43195Z" fill="black"/>
<path d="M222.03 26.0381V43.8091C222.03 44.0856 221.535 44.3086 220.926 44.3086C220.317 44.3086 219.822 44.0856 219.822 43.8091V27.7483H219.195L204.15 44.0019C203.978 44.1878 203.576 44.3086 203.132 44.3086H201.057C200.448 44.3086 199.953 44.0856 199.953 43.8091V26.0381C199.953 25.7616 200.448 25.5386 201.057 25.5386C201.666 25.5386 202.161 25.7616 202.161 26.0381V42.0989H202.897L217.833 25.8453C218.005 25.6594 218.407 25.5386 218.853 25.5386H220.926C221.535 25.5386 222.03 25.7616 222.03 26.0381Z" fill="black"/>
<path d="M207.888 2.1538e-05H207.986C208.315 2.1538e-05 208.606 0.183585 208.785 0.460094C208.831 0.529802 208.882 0.594862 208.943 0.655275C209.154 0.869047 209.438 0.994522 209.738 1.00846H211.959C212.259 0.994522 212.54 0.869047 212.754 0.655275C212.814 0.594862 212.865 0.529802 212.912 0.460094C213.09 0.183585 213.381 -0.00230206 213.711 2.1538e-05H213.811C214.524 2.1538e-05 214.963 0.778427 214.601 1.3965C214.085 2.27715 213.151 2.87664 212.059 2.93473H209.638C208.548 2.87896 207.614 2.27947 207.098 1.39883C206.735 0.783073 207.172 0.00466747 207.888 0.00234386V2.1538e-05Z" fill="#D53B2F"/>
<path d="M245.995 4.02202V20.6335C245.995 21.2376 245.505 21.7255 244.903 21.7255H244.878C244.274 21.7255 243.786 21.2353 243.786 20.6335V6.23409C243.786 5.62995 243.295 5.142 242.694 5.142H227.193C226.589 5.142 226.101 5.63228 226.101 6.23409V20.6335C226.101 21.2376 225.61 21.7255 225.009 21.7255H224.983C224.379 21.7255 223.891 21.2353 223.891 20.6335V5.13968H223.889V4.02202C223.889 3.41789 224.379 2.92993 224.981 2.92993H244.908C245.512 2.92993 246 3.42021 246 4.02202H245.995Z" fill="black"/>
<path d="M125.075 42.1198C125.456 42.1198 125.765 42.4289 125.765 42.8099V43.6418C125.765 44.0228 125.456 44.3319 125.075 44.3319H101.581C101.2 44.3319 100.891 44.0228 100.891 43.6418V42.8099C100.891 42.4289 101.2 42.1198 101.581 42.1198C101.962 42.1198 102.271 41.8108 102.271 41.4297V28.6383C102.354 26.9537 103.707 25.606 105.391 25.5293H123.692C124.073 25.5293 124.382 25.8383 124.382 26.2194V41.4297C124.382 41.8108 124.691 42.1198 125.072 42.1198H125.075ZM122.173 41.4297V28.4292C122.173 28.0481 121.863 27.739 121.482 27.739H105.494C105.229 27.7507 104.98 27.8599 104.792 28.0481C104.604 28.2363 104.492 28.4849 104.481 28.7498V41.4297C104.481 41.8108 104.79 42.1198 105.171 42.1198H121.482C121.863 42.1198 122.173 41.8108 122.173 41.4297Z" fill="black"/>
<path d="M149.693 26.6354V43.226C149.693 43.8347 149.198 44.3297 148.589 44.3297H148.585C147.976 44.3297 147.481 43.8347 147.481 43.226V27.7438H146.854L131.827 43.9765C131.618 44.2019 131.325 44.3297 131.016 44.3297H128.681C128.072 44.3297 127.577 43.8347 127.577 43.226V26.6354C127.577 26.0267 128.072 25.5317 128.681 25.5317H128.685C129.294 25.5317 129.789 26.0267 129.789 26.6354V42.1176H130.528L145.446 25.8896C145.655 25.6619 145.95 25.5317 146.259 25.5317H148.592C149.201 25.5317 149.696 26.0267 149.696 26.6354H149.693Z" fill="black"/>
<path d="M173.164 33.92C173.64 34.459 173.942 35.1585 173.982 35.9252V41.5065C173.898 43.1911 172.546 44.5388 170.861 44.6155C168.154 44.741 165.543 44.8014 162.836 44.8014C160.129 44.8014 157.424 44.7387 154.717 44.6155C153.03 44.5388 151.68 43.1842 151.596 41.4972C151.587 41.2997 151.578 41.1045 151.568 40.907C151.541 40.2797 152.045 39.7569 152.675 39.7569C153.265 39.7569 153.753 40.2216 153.778 40.8095C153.788 40.993 153.794 41.1766 153.804 41.3625C153.813 41.5484 153.855 41.7203 153.946 41.876C154.134 42.199 154.464 42.3918 154.819 42.4081C157.48 42.5312 160.175 42.5917 162.836 42.5917C165.496 42.5917 168.099 42.5289 170.759 42.4081C171.024 42.3965 171.273 42.2873 171.461 42.0991C171.649 41.9108 171.761 41.6622 171.772 41.3973V36.0368C171.758 35.7719 171.649 35.5233 171.461 35.3351C171.273 35.1468 171.024 35.0376 170.759 35.026L159.885 35.0562C159.274 35.0562 158.776 34.5613 158.776 33.9502V33.9223C158.776 33.3112 159.271 32.8163 159.882 32.8163H170.761C171.024 32.8023 171.273 32.6931 171.459 32.5072C171.647 32.319 171.758 32.0704 171.77 31.8055V28.7198C171.758 28.4549 171.649 28.2062 171.461 28.018C171.273 27.8298 171.024 27.7206 170.759 27.709C168.099 27.5858 165.496 27.5254 162.836 27.5254C160.175 27.5254 157.503 27.5858 154.854 27.709C154.675 27.7183 154.496 27.7578 154.343 27.8484C154.02 28.0366 153.825 28.3642 153.806 28.7221C153.797 28.9149 153.788 29.1078 153.778 29.3007C153.75 29.8909 153.265 30.3556 152.675 30.3556C152.047 30.3556 151.541 29.8328 151.568 29.2054C151.578 29.0102 151.587 28.815 151.596 28.6198C151.68 26.9329 153.03 25.5782 154.717 25.5016C157.424 25.3784 160.129 25.3157 162.836 25.3157C165.543 25.3157 168.154 25.3784 170.861 25.5016C172.546 25.5782 173.898 26.9259 173.982 28.6105V31.917C173.94 32.6838 173.64 33.3809 173.164 33.92Z" fill="black"/>
<path d="M245.995 26.6238V43.3352C245.995 43.9393 245.505 44.4273 244.903 44.4273H244.877C244.273 44.4273 243.785 43.937 243.785 43.3352V37.1846C243.785 36.5805 243.295 36.0925 242.693 36.0925H227.192C226.588 36.0925 226.1 36.5828 226.1 37.1846V43.3352C226.1 43.9393 225.61 44.4273 225.008 44.4273H224.983C224.379 44.4273 223.891 43.937 223.891 43.3352V26.6238C223.891 26.0197 224.381 25.5317 224.983 25.5317H225.008C225.612 25.5317 226.1 26.022 226.1 26.6238V32.7744C226.1 33.3785 226.591 33.8665 227.192 33.8665H242.693C243.297 33.8665 243.785 33.3762 243.785 32.7744V26.6238C243.785 26.0197 244.276 25.5317 244.877 25.5317H244.903C245.507 25.5317 245.995 26.022 245.995 26.6238Z" fill="black"/>
<path d="M172.92 2.92529H153.046C152.442 2.92529 151.954 3.41557 151.954 4.01739C151.954 4.6192 152.44 5.10715 153.042 5.10948L160.768 5.13969C161.369 5.14201 161.855 5.62996 161.855 6.23178V20.6358C161.855 21.2399 162.345 21.7279 162.947 21.7279H162.973C163.577 21.7279 164.065 21.2376 164.065 20.6358V6.23178C164.065 5.62996 164.55 5.14201 165.152 5.13969L172.92 5.10948C173.522 5.10715 174.007 4.6192 174.007 4.01739C174.007 3.41325 173.517 2.92529 172.915 2.92529H172.92Z" fill="black"/>
<path d="M196.937 25.5317H194.602C194.295 25.5317 194 25.6595 193.791 25.8849L176.173 42.4661C175.816 42.7845 175.669 43.2957 175.853 43.7372C176.162 44.483 177.075 44.6643 177.64 44.1647L183.867 37.956C184.155 37.7004 184.529 37.561 184.913 37.561H194.878C195.401 37.561 195.826 37.9862 195.826 38.509V43.3236C195.826 43.9323 196.321 44.4273 196.93 44.4273H196.935C197.544 44.4273 198.039 43.9323 198.039 43.3236V26.6354C198.039 26.0267 197.544 25.5317 196.935 25.5317H196.937ZM187.773 34.5148L195.071 27.8391C195.155 27.7647 195.262 27.7252 195.373 27.7252C195.624 27.7252 195.829 27.9297 195.829 28.1806V34.8563C195.829 35.1073 195.624 35.3118 195.373 35.3118H188.075C187.654 35.3118 187.459 34.7913 187.773 34.5148Z" fill="black"/>
<path d="M213.813 48.3217H213.716C213.386 48.3217 213.095 48.1381 212.916 47.8616C212.87 47.7919 212.819 47.7268 212.758 47.6664C212.547 47.4526 212.264 47.3272 211.964 47.3132H209.742C209.443 47.3272 209.162 47.4526 208.948 47.6664C208.887 47.7268 208.836 47.7919 208.79 47.8616C208.611 48.1381 208.32 48.324 207.99 48.3217H207.891C207.177 48.3217 206.738 47.5433 207.101 46.9252C207.616 46.0445 208.55 45.4451 209.643 45.387H212.064C213.154 45.4427 214.088 46.0422 214.603 46.9229C214.966 47.5386 214.529 48.317 213.813 48.3193V48.3217Z" fill="#D53B2F"/>
</svg>
