<svg width="127" height="38" viewBox="0 0 127 38" fill="none" xmlns="http://www.w3.org/2000/svg">
<g clip-path="url(#clip0_1572_384)">
<path d="M4.36712 30.3336C4.36712 29.2223 5.26827 28.3212 6.37955 28.3212H12.25C13.3613 28.3212 14.2625 29.2223 14.2625 30.3336V37.8071C14.6156 37.8807 14.9708 37.9457 15.3326 37.9999V24.1728C15.3326 23.0616 16.2337 22.1604 17.345 22.1604H23.2155C24.3268 22.1604 25.2279 23.0616 25.2279 24.1728V36.6763C25.5918 36.516 25.9471 36.3449 26.298 36.1629V17.9688C26.298 16.8575 27.1992 15.9563 28.3105 15.9563H34.1809C34.7355 15.9563 35.2381 16.1816 35.602 16.5434C33.908 8.36804 26.6663 2.22461 17.9905 2.22461C8.05404 2.22244 0 10.2743 0 20.2086C0 24.6971 1.6485 28.7999 4.36712 31.9496V30.3336Z" fill="white"/>
<path d="M41.1714 10.4629C41.1714 5.95063 44.659 2.40234 49.2103 2.40234C53.7615 2.40234 57.2491 5.95063 57.2491 10.4629C57.2491 14.9751 53.7615 18.5234 49.2103 18.5234C44.659 18.5234 41.1714 14.9751 41.1714 10.4629ZM53.5579 10.4629C53.5579 7.83741 51.7123 5.88997 49.2103 5.88997C46.7083 5.88997 44.8626 7.83958 44.8626 10.4629C44.8626 13.0862 46.7083 15.0358 49.2103 15.0358C51.7123 15.0358 53.5579 13.0884 53.5579 10.4629Z" fill="white"/>
<path d="M62.9723 8.6368H68.2233V2.72949H71.8127V18.1942H68.2233V12.0205H62.9723V18.1942H59.3829L59.3634 2.72949H62.9528L62.9723 8.6368Z" fill="white"/>
<path d="M73.9333 2.72949H84.6605V6.11314H81.0927V18.1942H77.5033V6.11314H73.9355V2.72949H73.9333Z" fill="white"/>
<path d="M95.4376 6.01133H90.3102V8.84259H95.3358V12.0226H90.3102V14.9145H95.4376V18.1964H86.7814V2.72949H95.4376V6.01133Z" fill="white"/>
<path d="M101.048 12.6357H101.089L107.898 2.72949H111.795V18.1942H108.307V8.3292H108.266L101.458 18.1942H97.5605V2.72949H101.048V12.6357Z" fill="white"/>
<path d="M74.7393 30.0713C74.7393 25.663 78.1446 22.1992 82.5918 22.1992C83.8136 22.1992 84.9357 22.4592 85.9582 23.0007V26.7071C85.096 26.0053 84.0541 25.6045 82.7933 25.6045C80.2285 25.6045 78.346 27.5086 78.346 30.0713C78.346 32.6339 80.2285 34.5381 82.7933 34.5381C84.0562 34.5381 85.096 34.1373 85.9582 33.4355V37.1419C84.9357 37.6834 83.8136 37.9434 82.5918 37.9434C78.1446 37.9434 74.7393 34.4774 74.7393 30.0713Z" fill="white"/>
<path d="M122.76 2.72949H117.109V2.73166H113.918V18.1812H117.514V6.11314H122.76V18.1812H126.356V2.72949H122.76Z" fill="white"/>
<path d="M105.465 0C105.363 0.214457 105.24 0.372591 105.082 0.472238C104.924 0.571885 104.733 0.630373 104.518 0.630373C104.304 0.630373 104.113 0.574051 103.955 0.472238C103.797 0.370425 103.663 0.212291 103.572 0H101.308C101.499 0.788508 101.893 1.36256 102.467 1.70049C103.041 2.03842 103.728 2.20739 104.527 2.20739C105.326 2.20739 106.024 2.03842 106.598 1.70049C107.172 1.36256 107.556 0.788508 107.746 0H105.461H105.465Z" fill="white"/>
<path d="M72.7572 33.5851V33.5808H70.6191V22.1799H67.1488V22.1842H64.9436C64.9436 22.1842 64.9436 22.1799 64.9436 22.1777H61.4776C61.4776 25.7845 60.9794 29.6209 59.9938 33.5786H59.2551V33.5829H58.0507V37.9609H61.521V36.3687H69.3086V37.9609H72.7789V33.5829H72.7572V33.5851ZM64.8028 25.7195H67.1488V33.5808H63.5637C64.1876 30.9011 64.6013 28.2713 64.8028 25.7195Z" fill="white"/>
<path d="M56.0295 37.972H52.3989L51.3526 35.0974H45.363L44.2756 37.972H40.7684L46.6346 22.2646H50.1634L56.0295 37.972ZM48.3372 26.8484L46.47 31.9737H50.224L48.3784 26.8484H48.3372Z" fill="white"/>
</g>
<defs>
<clipPath id="clip0_1572_384">
<rect width="127" height="38" fill="white"/>
</clipPath>
</defs>
</svg>
