<svg width="133" height="40" viewBox="0 0 133 40" fill="none" xmlns="http://www.w3.org/2000/svg">
<g clip-path="url(#clip0_1538_2287)">
<path d="M4.59674 31.9302C4.59674 30.7604 5.54528 29.8119 6.71498 29.8119H12.8941C14.0638 29.8119 15.0124 30.7604 15.0124 31.9302V39.797C15.384 39.8746 15.758 39.943 16.1388 40V25.4452C16.1388 24.2754 17.0873 23.3269 18.257 23.3269H24.4362C25.6059 23.3269 26.5544 24.2754 26.5544 25.4452V38.6068C26.9375 38.438 27.3114 38.2579 27.6808 38.0663V18.9146C27.6808 17.7448 28.6293 16.7962 29.799 16.7962H35.9782C36.5619 16.7962 37.0909 17.0334 37.4739 17.4142C35.6909 8.80856 28.0684 2.3418 18.9365 2.3418C8.47753 2.33952 0 10.8152 0 21.2724C0 25.997 1.73518 30.3158 4.59674 33.6313V31.9302Z" fill="#0080FF"/>
<path d="M4.59674 31.9302C4.59674 30.7604 5.54528 29.8119 6.71498 29.8119H12.8941C14.0638 29.8119 15.0124 30.7604 15.0124 31.9302V39.797C15.384 39.8746 15.758 39.943 16.1388 40V25.4452C16.1388 24.2754 17.0873 23.3269 18.257 23.3269H24.4362C25.6059 23.3269 26.5544 24.2754 26.5544 25.4452V38.6068C26.9375 38.438 27.3114 38.2579 27.6808 38.0663V18.9146C27.6808 17.7448 28.6293 16.7962 29.799 16.7962H35.9782C36.5619 16.7962 37.0909 17.0334 37.4739 17.4142C35.6909 8.80856 28.0684 2.3418 18.9365 2.3418C8.47753 2.33952 0 10.8152 0 21.2724C0 25.997 1.73518 30.3158 4.59674 33.6313V31.9302Z" fill="black"/>
<path d="M43.3362 11.0135C43.3362 6.26378 47.0072 2.52875 51.7977 2.52875C56.5883 2.52875 60.2593 6.26378 60.2593 11.0135C60.2593 15.7633 56.5883 19.4983 51.7977 19.4983C47.0072 19.4983 43.3362 15.7633 43.3362 11.0135ZM56.374 11.0135C56.374 8.24987 54.4313 6.19994 51.7977 6.19994C49.1642 6.19994 47.2215 8.25215 47.2215 11.0135C47.2215 13.7749 49.1642 15.8271 51.7977 15.8271C54.4313 15.8271 56.374 13.7772 56.374 11.0135Z" fill="#0080FF"/>
<path d="M43.3362 11.0135C43.3362 6.26378 47.0072 2.52875 51.7977 2.52875C56.5883 2.52875 60.2593 6.26378 60.2593 11.0135C60.2593 15.7633 56.5883 19.4983 51.7977 19.4983C47.0072 19.4983 43.3362 15.7633 43.3362 11.0135ZM56.374 11.0135C56.374 8.24987 54.4313 6.19994 51.7977 6.19994C49.1642 6.19994 47.2215 8.25215 47.2215 11.0135C47.2215 13.7749 49.1642 15.8271 51.7977 15.8271C54.4313 15.8271 56.374 13.7772 56.374 11.0135Z" fill="black"/>
<path d="M66.2833 9.09127H71.8104V2.87305H75.5885V19.1517H71.8104V12.653H66.2833V19.1517H62.5051L62.4846 2.87305H66.2628L66.2833 9.09127Z" fill="#0080FF"/>
<path d="M66.2833 9.09127H71.8104V2.87305H75.5885V19.1517H71.8104V12.653H66.2833V19.1517H62.5051L62.4846 2.87305H66.2628L66.2833 9.09127Z" fill="black"/>
<path d="M77.8208 2.87305H89.112V6.43478H85.3566V19.1517H81.5785V6.43478H77.8231V2.87305H77.8208Z" fill="#0080FF"/>
<path d="M77.8208 2.87305H89.112V6.43478H85.3566V19.1517H81.5785V6.43478H77.8231V2.87305H77.8208Z" fill="black"/>
<path d="M100.456 6.32761H95.0586V9.30789H100.348V12.6553H95.0586V15.6994H100.456V19.154H91.3442V2.87305H100.456V6.32761Z" fill="#0080FF"/>
<path d="M100.456 6.32761H95.0586V9.30789H100.348V12.6553H95.0586V15.6994H100.456V19.154H91.3442V2.87305H100.456V6.32761Z" fill="black"/>
<path d="M106.361 13.3006H106.405L113.571 2.87305H117.673V19.1517H114.002V8.76747H113.959L106.792 19.1517H102.69V2.87305H106.361V13.3006Z" fill="#0080FF"/>
<path d="M106.361 13.3006H106.405L113.571 2.87305H117.673V19.1517H114.002V8.76747H113.959L106.792 19.1517H102.69V2.87305H106.361V13.3006Z" fill="black"/>
<path d="M78.6689 31.6543C78.6689 27.014 82.2533 23.3679 86.9344 23.3679C88.2204 23.3679 89.4015 23.6415 90.4777 24.2115V28.113C89.5703 27.3742 88.4735 26.9524 87.1465 26.9524C84.4468 26.9524 82.4654 28.9567 82.4654 31.6543C82.4654 34.3518 84.4468 36.3561 87.1465 36.3561C88.4758 36.3561 89.5703 35.9343 90.4777 35.1955V39.097C89.4015 39.667 88.2204 39.9407 86.9344 39.9407C82.2533 39.9407 78.6689 36.2923 78.6689 31.6543Z" fill="#0080FF"/>
<path d="M78.6689 31.6543C78.6689 27.014 82.2533 23.3679 86.9344 23.3679C88.2204 23.3679 89.4015 23.6415 90.4777 24.2115V28.113C89.5703 27.3742 88.4735 26.9524 87.1465 26.9524C84.4468 26.9524 82.4654 28.9567 82.4654 31.6543C82.4654 34.3518 84.4468 36.3561 87.1465 36.3561C88.4758 36.3561 89.5703 35.9343 90.4777 35.1955V39.097C89.4015 39.667 88.2204 39.9407 86.9344 39.9407C82.2533 39.9407 78.6689 36.2923 78.6689 31.6543Z" fill="black"/>
<path d="M129.215 2.87305H123.266V2.87533H119.907V19.138H123.692V6.43478H129.215V19.138H133V2.87305H129.215Z" fill="#0080FF"/>
<path d="M129.215 2.87305H123.266V2.87533H119.907V19.138H123.692V6.43478H129.215V19.138H133V2.87305H129.215Z" fill="black"/>
<path d="M111.01 -6.10352e-05C110.903 0.225683 110.773 0.392141 110.607 0.497032C110.44 0.601923 110.24 0.663489 110.014 0.663489C109.788 0.663489 109.588 0.604203 109.421 0.497032C109.255 0.38986 109.113 0.223403 109.017 -6.10352e-05H106.635C106.835 0.829947 107.25 1.43421 107.855 1.78993C108.459 2.14565 109.182 2.32351 110.023 2.32351C110.864 2.32351 111.599 2.14565 112.203 1.78993C112.807 1.43421 113.211 0.829947 113.411 -6.10352e-05H111.006H111.01Z" fill="#0080FF"/>
<path d="M111.01 -6.10352e-05C110.903 0.225683 110.773 0.392141 110.607 0.497032C110.44 0.601923 110.24 0.663489 110.014 0.663489C109.788 0.663489 109.588 0.604203 109.421 0.497032C109.255 0.38986 109.113 0.223403 109.017 -6.10352e-05H106.635C106.835 0.829947 107.25 1.43421 107.855 1.78993C108.459 2.14565 109.182 2.32351 110.023 2.32351C110.864 2.32351 111.599 2.14565 112.203 1.78993C112.807 1.43421 113.211 0.829947 113.411 -6.10352e-05H111.006H111.01Z" fill="black"/>
<path d="M76.5826 35.3528V35.3483H74.3321V23.3473H70.6793V23.3519H68.3582C68.3582 23.3519 68.3582 23.3473 68.3582 23.3451H64.7099C64.7099 27.1417 64.1855 31.18 63.1481 35.346H62.3705V35.3505H61.1028V39.9589H64.7555V38.2829H72.9526V39.9589H76.6054V35.3505H76.5826V35.3528ZM68.2099 27.0733H70.6793V35.3483H66.9057C67.5624 32.5276 67.9979 29.7594 68.2099 27.0733Z" fill="#0080FF"/>
<path d="M76.5826 35.3528V35.3483H74.3321V23.3473H70.6793V23.3519H68.3582C68.3582 23.3519 68.3582 23.3473 68.3582 23.3451H64.7099C64.7099 27.1417 64.1855 31.18 63.1481 35.346H62.3705V35.3505H61.1028V39.9589H64.7555V38.2829H72.9526V39.9589H76.6054V35.3505H76.5826V35.3528ZM68.2099 27.0733H70.6793V35.3483H66.9057C67.5624 32.5276 67.9979 29.7594 68.2099 27.0733Z" fill="black"/>
<path d="M58.9756 39.9703H55.1541L54.0528 36.9445H47.7483L46.6036 39.9703H42.9121L49.0867 23.4363H52.801L58.9756 39.9703ZM50.8789 28.2613L48.9134 33.6564H52.8649L50.9222 28.2613H50.8789Z" fill="#0080FF"/>
<path d="M58.9756 39.9703H55.1541L54.0528 36.9445H47.7483L46.6036 39.9703H42.9121L49.0867 23.4363H52.801L58.9756 39.9703ZM50.8789 28.2613L48.9134 33.6564H52.8649L50.9222 28.2613H50.8789Z" fill="black"/>
</g>
<defs>
<clipPath id="clip0_1538_2287">
<rect width="133" height="40" fill="white"/>
</clipPath>
</defs>
</svg>
