<svg width="133" height="40" viewBox="0 0 133 40" fill="none" xmlns="http://www.w3.org/2000/svg">
<g clip-path="url(#clip0_1054_97)">
<path d="M4.59674 31.9302C4.59674 30.7604 5.54528 29.8119 6.71498 29.8119H12.8941C14.0638 29.8119 15.0124 30.7604 15.0124 31.9302V39.797C15.384 39.8746 15.758 39.943 16.1388 40V25.4452C16.1388 24.2754 17.0873 23.3269 18.257 23.3269H24.4362C25.6059 23.3269 26.5544 24.2754 26.5544 25.4452V38.6068C26.9375 38.438 27.3114 38.2579 27.6808 38.0663V18.9146C27.6808 17.7448 28.6293 16.7962 29.799 16.7962H35.9782C36.5619 16.7962 37.0909 17.0334 37.4739 17.4142C35.6909 8.80856 28.0684 2.3418 18.9365 2.3418C8.47753 2.33952 0 10.8152 0 21.2724C0 25.997 1.73518 30.3158 4.59674 33.6313V31.9302Z" fill="white"/>
<path d="M43.3362 11.0135C43.3362 6.26378 47.0072 2.52875 51.7977 2.52875C56.5883 2.52875 60.2593 6.26378 60.2593 11.0135C60.2593 15.7633 56.5883 19.4983 51.7977 19.4983C47.0072 19.4983 43.3362 15.7633 43.3362 11.0135ZM56.374 11.0135C56.374 8.24987 54.4313 6.19994 51.7977 6.19994C49.1642 6.19994 47.2215 8.25215 47.2215 11.0135C47.2215 13.7749 49.1642 15.8271 51.7977 15.8271C54.4313 15.8271 56.374 13.7772 56.374 11.0135Z" fill="white"/>
<path d="M66.2833 9.09127H71.8104V2.87305H75.5885V19.1517H71.8104V12.653H66.2833V19.1517H62.5051L62.4846 2.87305H66.2628L66.2833 9.09127Z" fill="white"/>
<path d="M77.8208 2.87305H89.112V6.43478H85.3566V19.1517H81.5785V6.43478H77.8231V2.87305H77.8208Z" fill="white"/>
<path d="M100.456 6.32761H95.0587V9.30789H100.349V12.6553H95.0587V15.6994H100.456V19.154H91.3444V2.87305H100.456V6.32761Z" fill="white"/>
<path d="M106.361 13.3006H106.405L113.571 2.87305H117.673V19.1517H114.002V8.76747H113.959L106.792 19.1517H102.69V2.87305H106.361V13.3006Z" fill="white"/>
<path d="M78.6691 31.6543C78.6691 27.014 82.2534 23.3679 86.9345 23.3679C88.2205 23.3679 89.4016 23.6415 90.4779 24.2115V28.113C89.5704 27.3742 88.4736 26.9524 87.1466 26.9524C84.4469 26.9524 82.4655 28.9567 82.4655 31.6543C82.4655 34.3518 84.4469 36.3561 87.1466 36.3561C88.4759 36.3561 89.5704 35.9343 90.4779 35.1955V39.097C89.4016 39.667 88.2205 39.9407 86.9345 39.9407C82.2534 39.9407 78.6691 36.2923 78.6691 31.6543Z" fill="white"/>
<path d="M129.215 2.87305H123.266V2.87533H119.907V19.138H123.692V6.43478H129.215V19.138H133V2.87305H129.215Z" fill="white"/>
<path d="M111.01 -6.10352e-05C110.903 0.225683 110.773 0.392141 110.607 0.497032C110.44 0.601923 110.24 0.663489 110.014 0.663489C109.788 0.663489 109.588 0.604203 109.421 0.497032C109.255 0.38986 109.113 0.223403 109.018 -6.10352e-05H106.635C106.836 0.829947 107.251 1.43421 107.855 1.78993C108.459 2.14565 109.182 2.32351 110.023 2.32351C110.865 2.32351 111.599 2.14565 112.203 1.78993C112.807 1.43421 113.211 0.829947 113.411 -6.10352e-05H111.006H111.01Z" fill="white"/>
<path d="M76.5827 35.3528V35.3483H74.3322V23.3473H70.6795V23.3519H68.3583C68.3583 23.3519 68.3583 23.3473 68.3583 23.3451H64.7101C64.7101 27.1417 64.1856 31.18 63.1482 35.346H62.3707V35.3505H61.1029V39.9589H64.7557V38.2829H72.9527V39.9589H76.6055V35.3505H76.5827V35.3528ZM68.2101 27.0733H70.6795V35.3483H66.9058C67.5625 32.5276 67.998 29.7594 68.2101 27.0733Z" fill="white"/>
<path d="M58.9755 39.9703H55.154L54.0527 36.9445H47.7481L46.6035 39.9703H42.912L49.0866 23.4363H52.8009L58.9755 39.9703ZM50.8788 28.2613L48.9133 33.6564H52.8648L50.9221 28.2613H50.8788Z" fill="white"/>
</g>
<defs>
<clipPath id="clip0_1054_97">
<rect width="133" height="40" fill="white"/>
</clipPath>
</defs>
</svg>
