<svg width="48" height="48" viewBox="0 0 48 48" fill="none" xmlns="http://www.w3.org/2000/svg">
<rect width="48" height="48" rx="12" fill="#365EDC"/>
<path fill-rule="evenodd" clip-rule="evenodd" d="M39 23.999C39.0016 25.839 38.3012 27.6187 37.0258 29.015C36.8418 29.2051 36.6549 29.3898 36.4644 29.5733C36.4644 29.5733 31.0645 34.6475 27.3677 38.1167C27.0484 38.4195 26.7385 38.7096 26.4482 38.9833C24.3095 40.9912 23.7 41.0058 21.6 39.0252C19.7746 37.3307 17.9594 35.6254 16.1466 33.9176C14.4208 32.2918 12.6224 30.7182 10.9742 29.015C9.70193 27.6207 9.00178 25.8451 9 24.0083C8.99785 21.7846 10.1407 19.5579 11.8645 18.1427C11.8645 18.1427 17.0226 13.3031 20.6129 9.93027C20.9516 9.60654 21.2804 9.29373 21.5901 9.00637C23.7385 6.99123 24.2324 6.99488 26.4098 9.03548C26.7909 9.3949 27.1281 9.79289 27.4159 10.2222C28.0832 11.076 28.5936 12.0289 28.9256 13.0412C29.196 13.943 29.3297 14.876 29.3226 15.8129C29.3233 17.3899 28.9433 18.9467 28.2107 20.3656C27.4781 21.7846 26.4121 23.0288 25.0934 24.0044C25.5525 24.3405 25.9802 24.7132 26.3711 25.1184C26.7311 25.452 27.0493 25.8233 27.3195 26.2251C28.6357 28.2948 28.8192 28.5967 27.2708 30.1762C26.6891 30.7609 26.0755 31.3166 25.4322 31.8413C25.4322 31.7831 25.4516 31.7285 25.4516 31.6694C25.4479 30.8017 25.2334 29.9463 24.8241 29.1686C24.4149 28.3908 23.8218 27.7112 23.0904 27.1817C21.8878 26.0566 20.4137 25.2211 18.7936 24.7465C17.4582 24.2418 16.5 23.969 16.5 23.969C16.5 23.969 17.3321 23.7443 18.7838 23.236C19.4805 22.9896 19.9743 22.765 20.6904 22.4421C21.606 22.0387 22.4354 21.4819 23.1386 20.7989C24.3788 19.7237 25.1767 18.2727 25.3926 16.7002C25.6084 15.1277 25.2286 13.5339 24.3194 12.1982L23.9905 11.8963L14.4095 20.899C13.551 21.5743 13.007 22.538 12.8932 23.5848C12.7793 24.6314 13.1046 25.6786 13.8 26.5033L23.9905 36.1889L34.0937 26.6216C34.7551 25.9011 35.1219 24.983 35.129 24.0315C35.1361 23.0801 34.7829 22.1573 34.1324 21.4282C33.8216 21.0634 33.4554 20.7472 33.1066 20.4188C31.3453 18.7765 31.5872 19.4713 31.5581 16.5495C31.5521 15.5075 31.4158 14.4697 31.1517 13.4577L36.1354 18.1363C36.4461 18.3913 36.737 18.6667 37.0063 18.9602L37.0451 18.992H37.0356C38.3089 20.3853 39.006 22.1625 39 23.999Z" fill="white"/>
</svg>
