<svg width="184" height="45" viewBox="0 0 184 45" fill="none" xmlns="http://www.w3.org/2000/svg">
<g clip-path="url(#clip0_414_4347)">
<path d="M82.6367 8.90221C82.5494 8.07221 82.3746 7.37326 82.1125 6.84904C81.8504 6.23746 81.4136 5.71325 80.933 5.23272C80.3651 4.7085 79.7099 4.31534 79.0109 4.05323C78.312 3.79113 77.4383 3.66007 76.3462 3.57271C75.3414 3.48534 73.9435 3.44165 72.1524 3.44165C70.3614 3.44165 68.9635 3.44165 68.0024 3.57271C66.9103 3.66007 66.0366 3.83481 65.3377 4.05323C64.595 4.31534 63.9834 4.7085 63.4155 5.18903C62.8913 5.66956 62.4545 6.23746 62.1924 6.80536C61.9303 7.37326 61.7555 8.02852 61.6682 8.85853C61.5808 9.60117 61.5371 10.5622 61.5371 11.8291C61.5371 13.0959 61.5808 14.0133 61.6682 14.7996C61.7555 15.6296 61.9303 16.2849 62.1924 16.8528C62.4545 17.4644 62.8913 18.0323 63.4155 18.4691C63.9834 18.9933 64.6387 19.3865 65.3377 19.6486C66.0366 19.867 66.8666 20.0418 67.9587 20.1291C68.9635 20.2165 70.3614 20.2602 72.1088 20.2602C73.8561 20.2602 75.2977 20.2602 76.3025 20.1291C77.3946 20.0418 78.2683 19.867 78.9672 19.6486C79.7099 19.3865 80.3651 18.9933 80.8893 18.4691C81.4136 17.9886 81.8067 17.4644 82.0688 16.8528C82.3309 16.2849 82.5057 15.6296 82.593 14.7996C82.6804 14.057 82.7241 13.0522 82.7241 11.8291C82.7241 10.6059 82.6804 9.60117 82.593 8.85853L82.6367 8.90221ZM75.6035 16.5033C74.8172 16.547 73.6377 16.5907 72.1088 16.5907C70.5798 16.5907 69.4003 16.5907 68.5703 16.5033C67.6966 16.4596 67.2161 16.3286 66.9977 16.2412C66.7356 16.1538 66.5171 16.0228 66.2987 15.8481C66.124 15.717 66.0366 15.5423 65.9492 15.3675C65.9056 15.2365 65.7745 14.9307 65.6871 14.3191C65.5998 13.7512 65.5998 12.9649 65.5998 11.9164C65.5998 10.868 65.5998 10.038 65.6871 9.47011C65.7745 8.85853 65.8619 8.50905 65.9492 8.42168C66.0366 8.24695 66.1677 8.07221 66.3424 7.89747C66.5171 7.72273 66.7356 7.59168 66.9977 7.50431C67.2161 7.41694 67.6966 7.32957 68.614 7.2422C69.444 7.19852 70.6235 7.15483 72.1524 7.15483C73.6814 7.15483 74.8609 7.15483 75.6472 7.2422C76.5209 7.32957 77.0014 7.41694 77.2635 7.50431C77.5256 7.59168 77.7441 7.72273 77.9188 7.89747C78.0935 8.07221 78.2246 8.24695 78.312 8.42168C78.3556 8.55274 78.4867 8.85853 78.5304 9.47011C78.6178 10.038 78.6178 10.868 78.6178 11.8728C78.6178 12.8775 78.6178 13.7075 78.5304 14.2754C78.443 14.887 78.3556 15.1928 78.2683 15.3238C78.1809 15.5423 78.0499 15.717 77.8751 15.8481C77.7004 16.0228 77.482 16.1538 77.2199 16.2412C76.9577 16.3286 76.4772 16.4159 75.6035 16.5033Z" fill="#4842C6"/>
<path d="M99.7612 3.66016V9.99441H88.9274V3.66016H84.9521V20.0855H88.9274V13.5765H99.7612V20.0855H103.693V3.66016H99.7612Z" fill="#4842C6"/>
<path d="M105.921 3.66016V7.32966H113.347V20.0855H117.104V7.32966H124.531V3.66016H105.921Z" fill="#4842C6"/>
<path d="M142.922 7.28597V3.66016H126.715V20.0855H142.922V16.4597H130.472V13.6639H141.699V10.0818H130.472V7.28597H142.922Z" fill="#4842C6"/>
<path d="M148.905 3.66016V14.6687L160.22 3.66016H163.845V20.0855H160.089V9.07704L148.731 20.0855H145.148V3.66016H148.905Z" fill="#4842C6"/>
<path d="M69.8376 35.7683L82.7682 27.4683H76.1282L65.906 33.9773H65.2071V27.4683H61.4502V43.8936H65.2071V37.6031H65.906L76.0845 43.8936H82.8993L69.8376 35.7683Z" fill="#4842C6"/>
<path d="M88.753 27.4683V38.4768L100.067 27.4683H103.693V43.8936H99.9362V32.8851L88.5782 43.8936H84.9961V27.4683H88.753Z" fill="#4842C6"/>
<path d="M105.921 27.4683V31.1378H113.347V43.8936H117.104V31.1378H124.531V27.4683H105.921Z" fill="#4842C6"/>
<path d="M169.788 3.66016H166.031V20.0855H169.788V3.66016Z" fill="#4842C6"/>
<path d="M181.233 3.66016H169.22V7.24229H181.233V3.66016Z" fill="#4842C6"/>
<path d="M183.897 3.66016H180.141V20.0855H183.897V3.66016Z" fill="#4842C6"/>
<path d="M160.177 0.645752H149.387V2.96103H160.177V0.645752Z" fill="#4842C6"/>
<path d="M15.9734 36.3796C15.9734 36.7728 15.6676 37.0349 15.3181 37.0349C14.9686 37.0349 14.6628 36.7291 14.6628 36.3796C14.6628 36.0301 14.9686 35.7244 15.3181 35.7244C15.6676 35.7244 15.9734 36.0301 15.9734 36.3796ZM47.7757 36.7728V41.0975C47.7757 41.4033 47.7757 41.7528 47.6883 42.0586C49.2173 39.9181 50.4404 37.5154 51.2704 34.9817C50.3968 35.9865 49.1299 36.6854 47.732 36.8165L47.7757 36.7728ZM52.6247 25.5022C52.712 27.5554 52.581 29.5648 52.2315 31.487H48.4746C47.4262 31.487 46.5088 32.1422 46.1594 33.1033H45.8099C45.4604 32.1859 44.543 31.487 43.4946 31.487H39.3446C39.3446 32.8849 39.8688 34.1517 40.7425 35.0691C41.6162 36.0301 42.8393 36.6417 44.1936 36.7291V37.7775C44.1936 40.1802 42.2277 42.2333 39.7814 42.2333C37.8156 42.2333 36.1556 40.8791 35.6314 39.0444C35.544 38.6949 35.4566 38.3017 35.4566 37.9086V29.0406C35.4566 25.7643 32.8793 22.9685 29.6029 22.8374C29.5156 22.8374 29.4282 22.8374 29.3408 22.8374H10.2507C6.79961 22.8374 4.00381 25.6332 4.00381 29.0843V39.6996C4.00381 40.0491 4.26591 40.3112 4.61539 40.3112H13.6144C13.9639 40.3112 14.2697 40.0054 14.2697 39.656H14.8376C14.8376 40.3112 14.3133 40.8791 13.6144 40.8791H4.35328C4.13486 40.8791 3.96012 40.7918 3.82907 40.617C1.33905 36.598 -0.102539 31.8364 -0.102539 26.769C-0.102539 12.2658 11.6049 0.514643 26.1082 0.427274C40.6114 0.339905 51.882 11.3484 52.5373 25.5459L52.6247 25.5022ZM18.4197 16.0663C18.4197 15.8479 18.245 15.6295 17.9828 15.6295H14.0512C13.8328 15.6295 13.6144 15.8042 13.6144 16.0663V19.9979C13.6144 20.2164 13.7891 20.4348 14.0512 20.4348H17.9828C18.2013 20.4348 18.4197 20.26 18.4197 19.9979V16.0663ZM20.3418 8.42154C20.3418 8.20312 20.1671 7.98469 19.905 7.98469H18.4634C18.245 7.98469 18.0265 8.15943 18.0265 8.42154V9.86313C18.0265 10.0815 18.2013 10.3 18.4634 10.3H19.905C20.1234 10.3 20.3418 10.1252 20.3418 9.86313V8.42154ZM24.6666 13.4016C24.6666 13.1832 24.4918 12.9647 24.2297 12.9647H21.565C21.3466 12.9647 21.1281 13.1395 21.1281 13.4016V16.0663C21.1281 16.2847 21.3029 16.5032 21.565 16.5032H24.2297C24.4482 16.5032 24.6666 16.3284 24.6666 16.0663V13.4016ZM25.8024 4.92678C25.8024 4.70836 25.6276 4.48993 25.3655 4.48993H24.3608C24.1424 4.48993 23.9239 4.66467 23.9239 4.92678V5.93152C23.9239 6.14994 24.0987 6.36837 24.3608 6.36837H25.3655C25.584 6.36837 25.8024 6.19363 25.8024 5.93152V4.92678Z" fill="#4842C6"/>
</g>
<defs>
<clipPath id="clip0_414_4347">
<rect width="184" height="44.0719" fill="white"/>
</clipPath>
</defs>
</svg>
