<svg width="185" height="44" viewBox="0 0 185 44" fill="none" xmlns="http://www.w3.org/2000/svg">
<g clip-path="url(#clip0_498_2828)">
<path d="M0 27.9666V4.83179H28.8435V27.9666H0ZM23.0743 22.1823V10.6149H5.76919V22.1823H23.0755H23.0743Z" fill="#2DD9A9"/>
<path d="M0 27.9666V4.83179H28.8435V27.9666H0ZM23.0743 22.1823V10.6149H5.76919V22.1823H23.0755H23.0743Z" fill="#2DD9A9"/>
<path d="M62.3154 10.6149H73.8526V27.9666H79.6218V10.6149H91.1589V4.83179H62.3154V10.6149Z" fill="#2DD9A9"/>
<path d="M54.1754 4.91756V9.53036V13.5412H36.977V4.82056H31.2363V27.8808H36.977V19.3255H54.1754V27.9778H59.9446V4.91756H54.1754Z" fill="#2DD9A9"/>
<path d="M179.232 4.8042H161.925H156.156V27.9938H161.925V10.5885H179.232V27.9938H185V4.8042H179.232Z" fill="#2DD9A9"/>
<path d="M122.473 22.2109H93.6299V27.9667H122.473V22.2109Z" fill="#2DD9A9"/>
<path d="M99.3991 10.6161H122.473V4.83179H93.6299V10.6161H99.3991Z" fill="#2DD9A9"/>
<path d="M93.6299 13.5076V19.3193H99.3991V19.2919H122.473V13.5076H99.3991H93.6299Z" fill="#2DD9A9"/>
<path d="M130.637 4.81934L130.668 20.7172L147.973 4.81934H153.742V27.9529H147.973V12.3908L130.668 27.9803V27.9529H124.901V4.81934H130.637Z" fill="#2DD9A9"/>
<path d="M146.1 0H133.104V3.91509H146.1V0Z" fill="#2DD9A9"/>
<path d="M25.1201 38.8711H22.5152V44.0012H19.042V30.3208H36.4079V38.8711H25.1201ZM32.9347 35.451V33.7409H22.5152V35.451H32.9347Z" fill="#2DD9A9"/>
<path d="M38.0352 44V30.3196H55.401V44H38.0352ZM51.9279 40.5799V33.7397H41.5083V40.5799H51.9279Z" fill="#2DD9A9"/>
<path d="M57.0967 44V33.7397L60.5699 30.3196H74.4626V44H57.0967ZM60.5686 40.5811H70.9881V33.7409H62.3064L60.5711 35.451V40.5811H60.5699H60.5686Z" fill="#2DD9A9"/>
<path d="M13.8969 30.3196H3.47735H0.00292969V44H3.47735V33.7322H13.8969V44H17.3688V30.3196H13.8969Z" fill="#2DD9A9"/>
<path d="M90.0111 35.4497H79.5916H76.1172V44H79.5916V38.8698H90.0111V44H93.4831V35.4497H90.0111Z" fill="#2DD9A9"/>
<path d="M79.6028 33.7397H90.0111H93.4831V30.3196H79.5916L79.5891 30.3221H76.1172V33.7397H79.6028Z" fill="#2DD9A9"/>
<path d="M147.121 30.3768V33.1017V35.4721H136.718V30.3196H133.246V43.9975H136.718V38.8898H147.121V44H150.612V30.3768H147.121Z" fill="#2DD9A9"/>
<path d="M103.436 37.1598L112.449 43.9988H107.305L103.252 40.5787L101.226 38.8699H98.6206V44H95.1475V30.3196H98.6206V35.451H101.226L103.252 33.7409L107.305 30.3208H112.513L112.507 30.3258V30.3233L103.436 37.1598Z" fill="#2DD9A9"/>
<path d="M131.592 30.3196H128.118V40.5874H124.66V30.3196H121.184V40.5874H117.702V30.3196H114.227V43.9926H116.443V44H130.366V43.9926H131.592V30.3196Z" fill="#2DD9A9"/>
<path d="M17.2588 16.4513L13.0029 13.9875V18.915L17.2588 16.4513Z" fill="#2DD9A9"/>
</g>
<defs>
<clipPath id="clip0_498_2828">
<rect width="185" height="44" fill="white"/>
</clipPath>
</defs>
</svg>
