<svg width="147" height="44" viewBox="0 0 147 44" fill="none" xmlns="http://www.w3.org/2000/svg">
<g clip-path="url(#clip0_498_2854)">
<path d="M5.08061 35.1232C5.08061 33.8364 6.12899 32.793 7.42182 32.793H14.2514C15.5442 32.793 16.5926 33.8364 16.5926 35.1232V43.7767C17.0034 43.862 17.4167 43.9372 17.8376 43.9999V27.9897C17.8376 26.7029 18.886 25.6595 20.1788 25.6595H27.0084C28.3012 25.6595 29.3496 26.7029 29.3496 27.9897V42.4674C29.773 42.2818 30.1863 42.0836 30.5945 41.8729V20.806C30.5945 19.5193 31.6429 18.4758 32.9358 18.4758H39.7654C40.4105 18.4758 40.9952 18.7367 41.4186 19.1556C39.4478 9.68937 31.023 2.57593 20.9298 2.57593C9.3699 2.57342 0 11.8966 0 23.3996C0 28.5967 1.91783 33.3473 5.08061 36.9944V35.1232Z" fill="#2285EB"/>
<path d="M47.8975 12.115C47.8975 6.89028 51.9549 2.78174 57.2497 2.78174C62.5445 2.78174 66.602 6.89028 66.602 12.115C66.602 17.3397 62.5445 21.4483 57.2497 21.4483C51.9549 21.4483 47.8975 17.3397 47.8975 12.115ZM62.3076 12.115C62.3076 9.07498 60.1605 6.82005 57.2497 6.82005C54.3389 6.82005 52.1918 9.07749 52.1918 12.115C52.1918 15.1525 54.3389 17.4099 57.2497 17.4099C60.1605 17.4099 62.3076 15.155 62.3076 12.115Z" fill="#2285EB"/>
<path d="M73.2601 10.0004H79.3689V3.1604H83.5448V21.0669H79.3689V13.9184H73.2601V21.0669H69.0842L69.0615 3.1604H73.2374L73.2601 10.0004Z" fill="#2285EB"/>
<path d="M86.0117 3.1604H98.4915V7.07831H94.3408V21.0669H90.1649V7.07831H86.0142V3.1604H86.0117Z" fill="#2285EB"/>
<path d="M111.029 6.96042H105.064V10.2387H110.911V13.9209H105.064V17.2694H111.029V21.0694H100.959V3.1604H111.029V6.96042Z" fill="#2285EB"/>
<path d="M117.556 14.6307H117.604L125.525 3.1604H130.059V21.0669H126.001V9.64427H125.954L118.033 21.0669H113.499V3.1604H117.556V14.6307Z" fill="#2285EB"/>
<path d="M86.9492 34.8196C86.9492 29.7153 90.9109 25.7046 96.0847 25.7046C97.5061 25.7046 98.8115 26.0056 100.001 26.6326V30.9243C98.998 30.1116 97.7858 29.6476 96.3191 29.6476C93.3353 29.6476 91.1453 31.8524 91.1453 34.8196C91.1453 37.7869 93.3353 39.9917 96.3191 39.9917C97.7884 39.9917 98.998 39.5276 100.001 38.715V43.0066C98.8115 43.6337 97.5061 43.9347 96.0847 43.9347C90.9109 43.9347 86.9492 39.9214 86.9492 34.8196Z" fill="#2285EB"/>
<path d="M142.817 3.1604H136.241V3.16291H132.529V21.0519H136.713V7.07831H142.817V21.0519H147V3.1604H142.817Z" fill="#2285EB"/>
<path d="M122.696 0C122.577 0.248318 122.433 0.431422 122.249 0.546802C122.065 0.662182 121.844 0.729905 121.594 0.729905C121.345 0.729905 121.123 0.66469 120.939 0.546802C120.755 0.428913 120.599 0.24581 120.493 0H117.859C118.081 0.913009 118.54 1.5777 119.208 1.96899C119.875 2.36028 120.674 2.55592 121.604 2.55592C122.534 2.55592 123.346 2.36028 124.014 1.96899C124.681 1.5777 125.127 0.913009 125.349 0H122.69H122.696Z" fill="#2285EB"/>
<path d="M84.6434 38.8882V38.8832H82.1561V25.6822H78.1188V25.6872H75.5533C75.5533 25.6872 75.5533 25.6822 75.5533 25.6797H71.521C71.521 29.8559 70.9414 34.2981 69.7947 38.8807H68.9354V38.8857H67.5342V43.9549H71.5714V42.1113H80.6314V43.9549H84.6686V38.8857H84.6434V38.8882ZM75.3895 29.7807H78.1188V38.8832H73.9479C74.6737 35.7805 75.1551 32.7354 75.3895 29.7807Z" fill="#2285EB"/>
<path d="M65.1831 43.9675H60.9594L59.7421 40.639H52.7739L51.5088 43.9675H47.4287L54.2533 25.78H58.3586L65.1831 43.9675ZM56.2341 31.0875L54.0617 37.0221H58.4291L56.282 31.0875H56.2341Z" fill="#2285EB"/>
</g>
<defs>
<clipPath id="clip0_498_2854">
<rect width="147" height="44" fill="white"/>
</clipPath>
</defs>
</svg>
