<svg width="249" height="53" viewBox="0 0 249 53" fill="none" xmlns="http://www.w3.org/2000/svg">
<g clip-path="url(#clip0_414_4255)">
<path d="M42.7163 24.0637L56.7679 38.1153C56.6186 39.0775 56.4029 40.0232 56.0877 40.9356L42.5835 27.4315L17.5162 52.4987H14.248L42.6997 24.0471L42.7163 24.0637Z" fill="#383838"/>
<path d="M56.9668 8.17085V31.6953L53.4829 25.4907H56.1042L48.2074 11.804L42.7493 20.8123L42.7161 20.7792L42.6829 20.8123L39.1659 15.5202H42.2516L34.1392 1.76717L26.0267 15.5202H29.129L25.5622 20.8621L20.071 11.8206L12.1742 25.5073H14.812L9.63593 34.7146H13.9659L6.93179 45.8464H16.6037V46.9082L11.2949 52.2169C8.09308 51.2879 5.75391 48.3349 5.75391 44.8345V18.3736C5.75391 8.50265 13.7668 0.489746 23.6378 0.489746H49.3189C53.5493 0.489746 57 3.92385 57 8.17085H56.9668Z" fill="#383838"/>
<path d="M30.2404 33.2547V28.6924H23.0404V40.4215L23.1233 40.3883L16.5869 46.9081V45.8464H6.91504L13.9657 34.7146H9.63578L14.8118 25.5072H12.174L20.0708 11.8205L25.562 20.862L29.1123 15.5201H26.0266L34.139 1.76709L42.2515 15.5201H39.1657L42.6828 20.8123L30.2404 33.2547Z" fill="#919191"/>
<path d="M56.1046 40.9524C53.865 47.6713 47.5277 52.5321 40.0456 52.5321H17.5332L42.6005 27.4648L56.1046 40.969V40.9524Z" fill="#919191"/>
<path d="M46.8138 38.6465H43.1143V42.346H46.8138V38.6465Z" fill="#383838"/>
<path d="M42.0531 38.6465H38.3535V42.346H42.0531V38.6465Z" fill="#383838"/>
<path d="M46.8138 43.4077H43.1143V47.1073H46.8138V43.4077Z" fill="#383838"/>
<path d="M42.0531 43.4077H38.3535V47.1073H42.0531V43.4077Z" fill="#383838"/>
<path d="M56.9665 31.6952L53.4661 25.5072H56.1039L48.2071 11.8206L42.749 20.8123L56.9665 35.0464V31.6952Z" fill="#919191"/>
<path d="M77.5837 24.2769C75.2721 24.2769 73.262 23.8749 71.5283 23.0457C69.7946 22.2166 68.4629 21.0607 67.483 19.5783C66.5282 18.0959 66.0508 16.337 66.0508 14.3521C66.0508 12.3671 66.5282 10.6334 67.483 9.12583C68.4378 7.64339 69.7946 6.46246 71.5283 5.65843C73.262 4.82926 75.2721 4.42725 77.5837 4.42725C79.8953 4.42725 81.9054 4.82926 83.6391 5.65843C85.3728 6.48759 86.7045 7.64339 87.6844 9.12583C88.6392 10.6083 89.1166 12.3671 89.1166 14.3521C89.1166 16.337 88.6392 18.0707 87.6844 19.5783C86.7296 21.0607 85.3728 22.2417 83.6391 23.0457C81.9054 23.8749 79.8953 24.2769 77.5837 24.2769ZM77.5837 18.4476C78.6138 18.4476 79.4933 18.2717 80.247 17.9451C81.0008 17.6185 81.5536 17.1411 81.9556 16.538C82.3576 15.935 82.5586 15.1812 82.5586 14.3269C82.5586 13.4727 82.3576 12.7189 81.9556 12.1158C81.5536 11.5128 81.0008 11.0354 80.247 10.7088C79.4933 10.3821 78.6138 10.2063 77.5837 10.2063C76.5535 10.2063 75.6741 10.3821 74.9203 10.7088C74.1665 11.0354 73.6137 11.5128 73.2117 12.1158C72.8097 12.744 72.6087 13.4727 72.6087 14.3269C72.6087 15.1812 72.8097 15.935 73.2117 16.538C73.6137 17.1662 74.1665 17.6185 74.9203 17.9451C75.6741 18.2717 76.5535 18.4476 77.5837 18.4476Z" fill="#606060"/>
<path d="M90.9004 4.85425H97.8352V11.2614H106.428V4.85425H113.363V23.8245H106.428V17.0153H97.8352V23.8245H90.9004V4.85425Z" fill="#606060"/>
<path d="M115.825 4.85425H136.001V10.6584H129.167V23.7994H122.634V10.6584H115.8V4.85425H115.825Z" fill="#606060"/>
<path d="M155.65 12.0906V16.5882H144.67V18.6736H156.58V23.8245H138.213V4.85425H156.454V10.0051H144.67V12.0906H155.65Z" fill="#606060"/>
<path d="M158.59 23.8245V4.85425H165.072V17.1158L172.51 4.85425H181.027V23.8245H174.545V11.1609L166.856 23.8245H158.59Z" fill="#606060"/>
<path d="M203.365 4.85425V23.8245H197.108V10.6333H189.445V23.8245H183.188V4.85425H203.365Z" fill="#606060"/>
<path d="M77.357 49.0762C75.3218 49.0762 73.4876 48.7244 71.8544 48.0209C70.2212 47.3174 68.9146 46.3375 67.8845 45.0811C66.8543 43.8248 66.2261 42.3675 66 40.6841H72.4323C72.583 41.3374 72.8594 41.865 73.2866 42.3173C73.7137 42.7695 74.2665 43.1213 74.9449 43.3474C75.6233 43.5736 76.4273 43.6992 77.3068 43.6992C78.1862 43.6992 79.2917 43.5233 80.0455 43.1716C80.7993 42.8198 81.3521 42.2921 81.7541 41.6137C81.8295 41.4881 81.8797 41.3625 81.93 41.2369H74.2162V37.0408H81.93C81.8797 36.9152 81.8295 36.7644 81.7541 36.6388C81.3521 35.9604 80.7742 35.4578 80.0455 35.1061C79.2917 34.7543 78.3872 34.5784 77.3068 34.5784C76.2263 34.5784 75.6233 34.7041 74.9449 34.9302C74.2665 35.1563 73.7137 35.483 73.3117 35.9352C72.8846 36.3875 72.583 36.9403 72.4323 37.5936H66C66.2261 35.9101 66.8543 34.4528 67.8845 33.1965C68.9146 31.9402 70.2212 30.9854 71.8544 30.2819C73.4876 29.5783 75.3218 29.2266 77.357 29.2266C79.3922 29.2266 81.6536 29.6286 83.3622 30.4577C85.0707 31.2869 86.4024 32.4427 87.3572 33.9251C88.312 35.4076 88.7894 37.1664 88.7894 39.1514C88.7894 41.1364 88.312 42.8701 87.3572 44.3776C86.4024 45.8601 85.0707 47.041 83.3622 47.845C81.6536 48.6742 79.6686 49.0762 77.357 49.0762Z" fill="#606060"/>
<path d="M113.439 40.458C113.238 42.1917 112.635 43.7244 111.655 45.0058C110.675 46.3124 109.368 47.3174 107.735 48.0461C106.102 48.7747 104.268 49.1265 102.182 49.1265C100.097 49.1265 97.9608 48.7245 96.2523 47.8953C94.5688 47.0662 93.2623 45.9104 92.3075 44.4279C91.3778 42.9455 90.9004 41.1866 90.9004 39.2017C90.9004 37.2167 91.3778 35.483 92.3075 33.9754C93.2371 32.493 94.5437 31.3121 96.2523 30.508C97.9357 29.6789 99.9207 29.2769 102.182 29.2769C104.443 29.2769 106.127 29.6286 107.735 30.3573C109.343 31.0859 110.65 32.091 111.655 33.3975C112.635 34.7041 113.238 36.2117 113.439 37.9454H106.881C106.73 37.2921 106.453 36.7393 106.051 36.2619C105.649 35.8097 105.122 35.4328 104.469 35.2066C103.815 34.9554 103.061 34.8297 102.182 34.8297C101.303 34.8297 100.373 35.0056 99.6694 35.3574C98.9659 35.7091 98.4382 36.2117 98.0613 36.865C97.6844 37.5182 97.5086 38.2971 97.5086 39.2268C97.5086 40.1565 97.6844 40.9103 98.0613 41.5635C98.4382 42.2168 98.9659 42.7193 99.6694 43.0711C100.373 43.4229 101.202 43.5988 102.182 43.5988C103.162 43.5988 103.815 43.4731 104.469 43.247C105.122 43.0209 105.649 42.6691 106.051 42.2168C106.453 41.7645 106.73 41.1866 106.881 40.4831H113.439V40.458Z" fill="#606060"/>
<path d="M115.625 29.7041H135.801V35.5082H128.967V48.6492H122.434V35.5082H115.6V29.7041H115.625Z" fill="#606060"/>
<path d="M155.399 36.9656V41.4631H144.419V43.5486H156.329V48.6995H137.962V29.7292H156.203V34.8801H144.419V36.9656H155.399Z" fill="#606060"/>
<path d="M180.877 29.7292V48.6995H174.395V36.4379L166.957 48.6995H158.439V29.7292H164.922V42.3928L172.611 29.7292H180.877Z" fill="#606060"/>
<path d="M183.063 29.679H203.24V35.4831H196.405V48.6241H189.872V35.4831H183.038V29.679H183.063Z" fill="#606060"/>
<path d="M172.032 -1C171.806 -0.522603 171.53 -0.170834 171.178 0.0553007C170.826 0.281436 170.399 0.407065 169.922 0.407065C169.444 0.407065 169.017 0.281436 168.665 0.0553007C168.314 -0.170834 168.012 -0.522603 167.811 -1H162.761C163.188 0.758829 164.067 2.04026 165.349 2.79405C166.63 3.54783 168.163 3.92472 169.947 3.92472C171.731 3.92472 173.289 3.54783 174.57 2.79405C175.851 2.04026 176.706 0.758829 177.133 -1H172.083H172.032Z" fill="#606060"/>
<path d="M177.083 54.9557H172.032C171.806 54.4783 171.53 54.1266 171.178 53.9004C170.826 53.6743 170.399 53.5487 169.922 53.5487C169.444 53.5487 169.017 53.6743 168.665 53.9004C168.314 54.1266 168.037 54.4783 167.811 54.9557H162.761C163.188 53.1969 164.067 51.9155 165.324 51.1617C166.605 50.4079 168.138 50.031 169.947 50.031C171.756 50.031 173.263 50.4079 174.545 51.1617C175.826 51.9155 176.681 53.1969 177.133 54.9557H177.083Z" fill="#606060"/>
</g>
<defs>
<clipPath id="clip0_414_4255">
<rect width="249" height="53" fill="white"/>
</clipPath>
</defs>
</svg>
