<svg width="22" height="22" viewBox="0 0 22 22" fill="none" xmlns="http://www.w3.org/2000/svg">
<path d="M15.8999 12C15.7191 12.8849 15.3019 13.7043 14.6927 14.3711C14.0835 15.0379 13.305 15.5273 12.44 15.7872C11.575 16.0471 10.6558 16.0679 9.77993 15.8472C8.90408 15.6266 8.10435 15.1729 7.46569 14.5342C6.82702 13.8956 6.37328 13.0958 6.15267 12.22C5.93205 11.3441 5.9528 10.4249 6.21271 9.55988C6.47262 8.69488 6.96198 7.91644 7.62881 7.30724C8.29564 6.69804 9.11503 6.28085 9.99994 6.09998" stroke="black" stroke-width="2" stroke-linecap="round" stroke-linejoin="round"/>
<path d="M11.33 2H11C9.21997 2 7.47991 2.52784 5.99987 3.51677C4.51983 4.50571 3.36628 5.91131 2.68509 7.55585C2.0039 9.20038 1.82567 11.01 2.17294 12.7558C2.5202 14.5016 3.37737 16.1053 4.63604 17.364C5.89472 18.6226 7.49836 19.4798 9.24419 19.8271C10.99 20.1743 12.7996 19.9961 14.4442 19.3149C16.0887 18.6337 17.4943 17.4802 18.4832 16.0001C19.4722 14.5201 20 12.78 20 11C20 10.89 20 10.78 20 10.67M14 8L11.5 10.5L14 8ZM14 5V8H17L20 5H17V2L14 5Z" stroke="black" stroke-width="2" stroke-linecap="round" stroke-linejoin="round"/>
</svg>
