<svg width="22" height="22" viewBox="0 0 22 22" fill="none" xmlns="http://www.w3.org/2000/svg">
<path d="M18.8314 13.39L18.1114 19.12C18.0819 19.3639 17.9637 19.5884 17.7792 19.7508C17.5948 19.9131 17.3571 20.0018 17.1114 20H4.88138C4.6357 20.0018 4.39796 19.9131 4.21353 19.7508C4.02909 19.5884 3.91085 19.3639 3.88138 19.12L3.16138 13.39" stroke="black" stroke-width="2" stroke-linecap="round" stroke-linejoin="round"/>
<path d="M19.3214 13.23L14.7914 14.74C12.3311 15.559 9.67166 15.559 7.21136 14.74L2.68136 13.23C2.47438 13.1604 2.29586 13.025 2.17307 12.8444C2.05029 12.6639 1.98998 12.4481 2.00136 12.23V6H20.0014V12.28C20.0019 12.4896 19.9365 12.6942 19.8145 12.8646C19.6925 13.0351 19.52 13.1629 19.3214 13.23ZM10.0014 11H12.0014H10.0014ZM16.0014 5C16.0014 4.20435 15.6853 3.44129 15.1227 2.87868C14.5601 2.31607 13.797 2 13.0014 2H9.00136C8.20571 2 7.44265 2.31607 6.88004 2.87868C6.31743 3.44129 6.00136 4.20435 6.00136 5V6H16.0014V5Z" stroke="black" stroke-width="2" stroke-linecap="round" stroke-linejoin="round"/>
</svg>
