<svg width="22" height="22" viewBox="0 0 22 22" fill="none" xmlns="http://www.w3.org/2000/svg">
<path d="M20 11H2M11 20C9.21997 20 7.47991 19.4722 5.99987 18.4832C4.51983 17.4943 3.36628 16.0887 2.68509 14.4442C2.0039 12.7996 1.82567 10.99 2.17294 9.24419C2.5202 7.49836 3.37737 5.89472 4.63604 4.63604C5.89472 3.37737 7.49836 2.5202 9.24419 2.17294C10.99 1.82567 12.7996 2.0039 14.4442 2.68509C16.0887 3.36628 17.4943 4.51983 18.4832 5.99987C19.4722 7.47991 20 9.21997 20 11C20 13.387 19.0518 15.6761 17.364 17.364C15.6761 19.0518 13.387 20 11 20V20ZM15 11C15 6 13.21 2 11 2C8.79 2 7 6 7 11C7 16 8.79 20 11 20C13.21 20 15 16 15 11Z" stroke="black" stroke-width="2" stroke-linecap="round" stroke-linejoin="round"/>
</svg>
