<svg width="33" height="33" viewBox="0 0 33 33" fill="none" xmlns="http://www.w3.org/2000/svg">
<circle cx="16" cy="16" r="16" fill="white"/>
<path d="M8.14258 14.1401C7.87736 14.1401 7.62301 14.2455 7.43547 14.433C7.24793 14.6206 7.14258 14.8749 7.14258 15.1401V25.1401C7.14258 25.4054 7.24793 25.6597 7.43547 25.8472C7.62301 26.0348 7.87736 26.1401 8.14258 26.1401H15.1426C15.4078 26.1401 15.6621 26.0348 15.8497 25.8472C16.0372 25.6597 16.1426 25.4054 16.1426 25.1401V15.1401M8.14258 14.1401H15.1426C15.4078 14.1401 15.6621 14.2455 15.8497 14.433C16.0372 14.6206 16.1426 14.8749 16.1426 15.1401M8.14258 14.1401V9.14014C8.14258 8.87492 8.24794 8.62057 8.43547 8.43303C8.62301 8.24549 8.87736 8.14014 9.14258 8.14014H23.1426C23.4078 8.14014 23.6621 8.24549 23.8497 8.43303C24.0372 8.62057 24.1426 8.87492 24.1426 9.14014V20.1401H16.1426M16.1426 15.1401V20.1401M16.1426 20.1401V21.1401H24.1426C24.4078 21.1401 24.6621 21.0348 24.8497 20.8472C25.0372 20.6597 25.1426 20.4054 25.1426 20.1401H16.1426ZM10.6426 16.1401H12.6426L13.1426 14.1401H10.1426L10.6426 16.1401Z" stroke="black" stroke-width="2" stroke-linecap="round" stroke-linejoin="round"/>
</svg>
