<svg width="33" height="33" viewBox="0 0 33 33" fill="none" xmlns="http://www.w3.org/2000/svg">
<circle cx="16" cy="16" r="16" fill="white"/>
<rect x="17.1981" y="17.8064" width="2.11111" height="2.11111" rx="1" fill="black"/>
<rect x="10.865" y="14.6401" width="2.11111" height="6.33333" rx="1" fill="black"/>
<rect x="15.087" y="16.7512" width="2.11111" height="6.33333" rx="1" transform="rotate(90 15.087 16.7512)" fill="black"/>
<rect x="20.365" y="15.6956" width="2.11111" height="2.11111" rx="1" fill="black"/>
<path d="M18.2537 11.4735C18.2537 10.9509 18.2537 10.6895 18.1995 10.4615C18.065 9.89551 17.6907 9.4161 17.1742 9.14833C16.9662 9.04047 16.7126 8.97709 16.2056 8.85034L16.1426 8.83458C15.5755 8.69279 15.2919 8.6219 15.0624 8.49477C14.5871 8.23147 14.2393 7.7861 14.0992 7.26111C14.0315 7.00762 14.0315 6.71532 14.0315 6.13072V5.14014" stroke="black" stroke-width="2" stroke-linecap="round"/>
<path d="M6.64258 17.8072C6.64258 15.1062 6.64258 13.7558 7.29696 12.8254C7.46543 12.5859 7.66195 12.3715 7.8815 12.1877C8.73431 11.4739 9.97225 11.4739 12.4481 11.4739H19.837C22.3129 11.4739 23.5509 11.4739 24.4037 12.1877C24.6232 12.3715 24.8197 12.5859 24.9882 12.8254C25.6426 13.7558 25.6426 15.1062 25.6426 17.8072C25.6426 20.5082 25.6426 21.8587 24.9882 22.789C24.8197 23.0285 24.6232 23.2429 24.4037 23.4267C23.5509 24.1405 22.3129 24.1405 19.837 24.1405H12.4481C9.97225 24.1405 8.73431 24.1405 7.8815 23.4267C7.66195 23.2429 7.46543 23.0285 7.29696 22.789C6.64258 21.8587 6.64258 20.5082 6.64258 17.8072Z" stroke="black" stroke-width="2"/>
</svg>
