<svg width="33" height="33" viewBox="0 0 33 33" fill="none" xmlns="http://www.w3.org/2000/svg">
<circle cx="16" cy="16" r="16" fill="#2793FF"/>
<path d="M25.1426 11.1401V23.1401C25.1426 23.4054 25.0372 23.6597 24.8497 23.8472C24.6621 24.0348 24.4078 24.1401 24.1426 24.1401H8.14258C7.87736 24.1401 7.62301 24.0348 7.43547 23.8472C7.24793 23.6597 7.14258 23.4054 7.14258 23.1401V11.1401" stroke="white" stroke-width="2" stroke-linecap="round" stroke-linejoin="round"/>
<path d="M7.14258 11.1401L11.8526 6.43014C12.0388 6.24539 12.2902 6.14124 12.5526 6.14014H19.7326C19.9949 6.14124 20.2463 6.24539 20.4326 6.43014L25.1426 11.1401H7.14258ZM19.1426 11.1401H13.1426V18.1401L16.1426 17.1401L19.1426 18.1401V11.1401Z" stroke="white" stroke-width="2" stroke-linecap="round" stroke-linejoin="round"/>
</svg>
