<svg width="32" height="32" viewBox="0 0 32 32" fill="none" xmlns="http://www.w3.org/2000/svg">
<rect width="32" height="32" rx="16" fill="white"/>
<path d="M22.0001 13.5C22.0001 17.09 18.6401 20 14.5001 20C13.2948 20.0076 12.1018 19.7587 11.0001 19.27L10.3501 19.55L7.00006 21L8.15006 17C7.39785 15.9886 6.99429 14.7604 7.00006 13.5C7.00006 9.91 10.3601 7 14.5001 7C18.1301 7 21.1601 9.24 21.8501 12.21C21.9509 12.6326 22.0013 13.0656 22.0001 13.5Z" stroke="black" stroke-width="2" stroke-linecap="round" stroke-linejoin="round"/>
<path d="M21.85 12.21C22.7857 12.7463 23.5672 13.515 24.119 14.4417C24.6708 15.3684 24.9743 16.4217 25 17.5C25.0058 18.7604 24.6022 19.9886 23.85 21L25 25L21 23.27C19.8983 23.7587 18.7052 24.0075 17.5 24C16.0056 24.0551 14.5291 23.6605 13.2615 22.8671C11.9939 22.0737 10.9936 20.9182 10.39 19.55" stroke="black" stroke-width="2" stroke-linecap="round" stroke-linejoin="round"/>
</svg>
