<svg width="33" height="33" viewBox="0 0 33 33" fill="none" xmlns="http://www.w3.org/2000/svg">
<circle cx="16" cy="16" r="16" fill="white"/>
<path d="M15.1426 17.1401V6.14014C18.0551 6.15589 20.8438 7.31988 22.9033 9.37937C24.9628 11.4389 26.1268 14.2276 26.1426 17.1401C26.1415 19.7175 25.2355 22.2126 23.5826 24.1901L15.1426 17.1401Z" stroke="black" stroke-width="2" stroke-linecap="round" stroke-linejoin="round"/>
<path d="M20.6726 21.7601C19.8749 22.6422 18.8708 23.3126 17.7503 23.7114C16.6298 24.1101 15.4279 24.2246 14.2522 24.0447C13.0766 23.8648 11.964 23.396 11.014 22.6805C10.064 21.9649 9.3064 21.0249 8.80897 19.9446C8.31155 18.8643 8.08988 17.6775 8.16381 16.4904C8.23774 15.3034 8.60498 14.1533 9.23261 13.1431C9.86024 12.1328 10.7287 11.2941 11.7601 10.7019C12.7915 10.1098 13.9537 9.78276 15.1426 9.75012" stroke="black" stroke-width="2" stroke-linecap="round" stroke-linejoin="round"/>
</svg>
