<svg width="33" height="33" viewBox="0 0 33 33" fill="none" xmlns="http://www.w3.org/2000/svg">
<circle cx="16" cy="16" r="16" fill="#2793FF"/>
<path d="M21.0426 17.1402C20.8618 18.0251 20.4446 18.8445 19.8354 19.5114C19.2262 20.1782 18.4477 20.6676 17.5827 20.9275C16.7177 21.1874 15.7985 21.2081 14.9226 20.9875C14.0468 20.7669 13.2471 20.3131 12.6084 19.6745C11.9697 19.0358 11.516 18.2361 11.2954 17.3602C11.0748 16.4844 11.0955 15.5651 11.3554 14.7001C11.6153 13.8351 12.1047 13.0567 12.7715 12.4475C13.4383 11.8383 14.2577 11.4211 15.1426 11.2402" stroke="white" stroke-width="2" stroke-linecap="round" stroke-linejoin="round"/>
<path d="M16.4726 7.14014H16.1426C14.3626 7.14014 12.6225 7.66798 11.1425 8.65691C9.66241 9.64584 8.50886 11.0515 7.82767 12.696C7.14648 14.3405 6.96825 16.1501 7.31551 17.8959C7.66278 19.6418 8.51995 21.2454 9.77862 22.5041C11.0373 23.7628 12.6409 24.6199 14.3868 24.9672C16.1326 25.3145 17.9422 25.1362 19.5867 24.4551C21.2313 23.7739 22.6369 22.6203 23.6258 21.1403C24.6147 19.6602 25.1426 17.9202 25.1426 16.1401C25.1426 16.0301 25.1426 15.9201 25.1426 15.8101M19.1426 13.1401L16.6426 15.6401L19.1426 13.1401ZM19.1426 10.1401V13.1401H22.1426L25.1426 10.1401H22.1426V7.14014L19.1426 10.1401Z" stroke="white" stroke-width="2" stroke-linecap="round" stroke-linejoin="round"/>
</svg>
