<svg width="32" height="32" viewBox="0 0 32 32" fill="none" xmlns="http://www.w3.org/2000/svg">
<circle cx="16" cy="16" r="16" fill="white"/>
<path d="M11.68 14.66L18.3 11.35M9 13C9.59334 13 10.1734 13.1759 10.6667 13.5056C11.1601 13.8352 11.5446 14.3038 11.7716 14.852C11.9987 15.4001 12.0581 16.0033 11.9424 16.5853C11.8266 17.1672 11.5409 17.7018 11.1213 18.1213C10.7018 18.5409 10.1672 18.8266 9.58527 18.9424C9.00333 19.0581 8.40013 18.9987 7.85195 18.7716C7.30377 18.5446 6.83524 18.1601 6.50559 17.6667C6.17595 17.1734 6 16.5933 6 16C6 15.2044 6.31607 14.4413 6.87868 13.8787C7.44129 13.3161 8.20435 13 9 13V13ZM18 22C18 22.5933 18.1759 23.1734 18.5056 23.6667C18.8352 24.1601 19.3038 24.5446 19.8519 24.7716C20.4001 24.9987 21.0033 25.0581 21.5853 24.9424C22.1672 24.8266 22.7018 24.5409 23.1213 24.1213C23.5409 23.7018 23.8266 23.1672 23.9424 22.5853C24.0581 22.0033 23.9987 21.4001 23.7716 20.852C23.5446 20.3038 23.1601 19.8352 22.6667 19.5056C22.1734 19.1759 21.5933 19 21 19C20.2044 19 19.4413 19.3161 18.8787 19.8787C18.3161 20.4413 18 21.2044 18 22ZM11.68 17.34L18.3 20.65L11.68 17.34ZM21 13C21.5933 13 22.1734 12.8241 22.6667 12.4944C23.1601 12.1648 23.5446 11.6962 23.7716 11.1481C23.9987 10.5999 24.0581 9.99667 23.9424 9.41473C23.8266 8.83279 23.5409 8.29824 23.1213 7.87868C22.7018 7.45912 22.1672 7.1734 21.5853 7.05765C21.0033 6.94189 20.4001 7.0013 19.8519 7.22836C19.3038 7.45543 18.8352 7.83994 18.5056 8.33329C18.1759 8.82664 18 9.40666 18 10C18 10.7957 18.3161 11.5587 18.8787 12.1213C19.4413 12.6839 20.2044 13 21 13Z" stroke="black" stroke-width="2" stroke-linecap="round" stroke-linejoin="round"/>
</svg>
