<svg width="32" height="32" viewBox="0 0 32 32" fill="none" xmlns="http://www.w3.org/2000/svg">
<path d="M0 16C0 11.7565 1.68571 7.68687 4.68629 4.68629C7.68687 1.68571 11.7565 0 16 0C20.2435 0 24.3131 1.68571 27.3137 4.68629C30.3143 7.68687 32 11.7565 32 16C32 20.2435 30.3143 24.3131 27.3137 27.3137C24.3131 30.3143 20.2435 32 16 32C11.7565 32 7.68687 30.3143 4.68629 27.3137C1.68571 24.3131 0 20.2435 0 16Z" fill="url(#paint0_linear_1487_5257)"/>
<path fill-rule="evenodd" clip-rule="evenodd" d="M13.3841 31.7841C10.1772 31.2573 7.20746 29.7641 4.87207 27.5041L19.2881 14.2721L11.0481 16.2721C10.5026 16.4061 9.93597 16.4303 9.3811 16.3431C8.82624 16.2559 8.29428 16.0592 7.81623 15.7643C7.33819 15.4694 6.92362 15.0824 6.5967 14.6256C6.26978 14.1689 6.03705 13.6517 5.91207 13.1041C5.65871 11.9898 5.85291 10.8207 6.45287 9.84817C7.05283 8.87567 8.0106 8.17756 9.12007 7.90408L26.2721 3.73608C28.361 5.48526 29.9687 7.7389 30.9427 10.2834C31.9167 12.8279 32.2248 15.579 31.8378 18.276C31.4508 20.9729 30.3816 23.5264 28.7313 25.6943C27.0811 27.8623 24.9046 29.5729 22.4081 30.6641C22.3601 30.0961 22.4161 29.5041 22.6161 28.9281L25.3361 20.8161L13.3841 31.7841Z" fill="url(#paint1_linear_1487_5257)"/>
<path fill-rule="evenodd" clip-rule="evenodd" d="M13.3841 31.7841C10.1772 31.2573 7.20746 29.7641 4.87207 27.5041L19.2881 14.2721L11.0481 16.2721C10.5026 16.4061 9.93597 16.4303 9.3811 16.3431C8.82624 16.2559 8.29428 16.0592 7.81623 15.7643C7.33819 15.4694 6.92362 15.0824 6.5967 14.6256C6.26978 14.1689 6.03705 13.6517 5.91207 13.1041C5.65871 11.9898 5.85291 10.8207 6.45287 9.84817C7.05283 8.87567 8.0106 8.17756 9.12007 7.90408L26.2721 3.73608C28.361 5.48526 29.9687 7.7389 30.9427 10.2834C31.9167 12.8279 32.2248 15.579 31.8378 18.276C31.4508 20.9729 30.3816 23.5264 28.7313 25.6943C27.0811 27.8623 24.9046 29.5729 22.4081 30.6641C22.3601 30.0961 22.4161 29.5041 22.6161 28.9281L25.3361 20.8161L13.3841 31.7841Z" fill="url(#paint2_linear_1487_5257)"/>
<defs>
<linearGradient id="paint0_linear_1487_5257" x1="4.18187" y1="5.36337" x2="27.1819" y2="27.7269" gradientUnits="userSpaceOnUse">
<stop stop-color="#315BEA"/>
<stop offset="1" stop-color="#2F2DD4"/>
</linearGradient>
<linearGradient id="paint1_linear_1487_5257" x1="39.2481" y1="2.02408" x2="-15.5279" y2="52.2881" gradientUnits="userSpaceOnUse">
<stop stop-color="#FFB800"/>
<stop offset="1" stop-color="#FFF11D"/>
</linearGradient>
<linearGradient id="paint2_linear_1487_5257" x1="8.12167" y1="19.2737" x2="39.3822" y2="7.03676" gradientUnits="userSpaceOnUse">
<stop stop-color="white"/>
<stop offset="1" stop-color="#EDF6FF"/>
</linearGradient>
</defs>
</svg>
