<svg width="32" height="32" viewBox="0 0 32 32" fill="none" xmlns="http://www.w3.org/2000/svg">
<rect width="32" height="32" rx="16" fill="#2793FF"/>
<path d="M19 16C19 16.5933 18.8241 17.1734 18.4944 17.6667C18.1648 18.1601 17.6962 18.5446 17.1481 18.7716C16.5999 18.9987 15.9967 19.0581 15.4147 18.9424C14.8328 18.8266 14.2982 18.5409 13.8787 18.1213C13.4591 17.7018 13.1734 17.1672 13.0576 16.5853C12.9419 16.0033 13.0013 15.4001 13.2284 14.8519C13.4554 14.3038 13.8399 13.8352 14.3333 13.5056C14.8266 13.1759 15.4067 13 16 13C16.7956 13 17.5587 13.3161 18.1213 13.8787C18.6839 14.4413 19 15.2044 19 16ZM24 14H23.41C23.2033 13.9992 23.0019 13.9343 22.8336 13.8143C22.6652 13.6943 22.5382 13.5251 22.47 13.33C22.381 13.1427 22.3525 12.9324 22.3883 12.7281C22.4241 12.5239 22.5226 12.3358 22.67 12.19L23.08 11.78C23.1737 11.687 23.2481 11.5764 23.2989 11.4546C23.3497 11.3327 23.3758 11.202 23.3758 11.07C23.3758 10.938 23.3497 10.8073 23.2989 10.6854C23.2481 10.5636 23.1737 10.453 23.08 10.36L21.66 8.93C21.567 8.83627 21.4564 8.76188 21.3346 8.71111C21.2127 8.66034 21.082 8.6342 20.95 8.6342C20.818 8.6342 20.6873 8.66034 20.5654 8.71111C20.4436 8.76188 20.333 8.83627 20.24 8.93L19.83 9.34C19.6842 9.48742 19.4961 9.58586 19.2919 9.62169C19.0876 9.65752 18.8773 9.62897 18.69 9.54C18.4895 9.47463 18.3148 9.34755 18.1909 9.17693C18.067 9.00631 18.0002 8.80088 18 8.59V8C18 7.73478 17.8946 7.48043 17.7071 7.29289C17.5196 7.10536 17.2652 7 17 7H15C14.7348 7 14.4804 7.10536 14.2929 7.29289C14.1054 7.48043 14 7.73478 14 8V8.59C13.9992 8.79672 13.9343 8.9981 13.8143 9.16643C13.6943 9.33477 13.5251 9.46178 13.33 9.53V9.53C13.1427 9.61897 12.9324 9.64752 12.7281 9.61169C12.5239 9.57586 12.3358 9.47742 12.19 9.33L11.78 8.92C11.687 8.82627 11.5764 8.75188 11.4546 8.70111C11.3327 8.65034 11.202 8.6242 11.07 8.6242C10.938 8.6242 10.8073 8.65034 10.6854 8.70111C10.5636 8.75188 10.453 8.82627 10.36 8.92L8.93 10.34C8.83627 10.433 8.76188 10.5436 8.71111 10.6654C8.66034 10.7873 8.6342 10.918 8.6342 11.05C8.6342 11.182 8.66034 11.3127 8.71111 11.4346C8.76188 11.5564 8.83627 11.667 8.93 11.76L9.34 12.17C9.48742 12.3158 9.58586 12.5039 9.62169 12.7081C9.65752 12.9124 9.62897 13.1227 9.54 13.31C9.47178 13.5051 9.34477 13.6743 9.17643 13.7943C9.0081 13.9143 8.80672 13.9792 8.6 13.98H8C7.73478 13.98 7.48043 14.0854 7.29289 14.2729C7.10536 14.4604 7 14.7148 7 14.98V16.98C7 17.2452 7.10536 17.4996 7.29289 17.6871C7.48043 17.8746 7.73478 17.98 8 17.98H8.59C8.79672 17.9808 8.9981 18.0457 9.16643 18.1657C9.33477 18.2857 9.46178 18.4549 9.53 18.65V18.65C9.61897 18.8373 9.64752 19.0476 9.61169 19.2519C9.57586 19.4561 9.47742 19.6442 9.33 19.79L8.92 20.2C8.82627 20.293 8.75188 20.4036 8.70111 20.5254C8.65034 20.6473 8.6242 20.778 8.6242 20.91C8.6242 21.042 8.65034 21.1727 8.70111 21.2946C8.75188 21.4164 8.82627 21.527 8.92 21.62L10.33 23.03C10.423 23.1237 10.5336 23.1981 10.6554 23.2489C10.7773 23.2997 10.908 23.3258 11.04 23.3258C11.172 23.3258 11.3027 23.2997 11.4246 23.2489C11.5464 23.1981 11.657 23.1237 11.75 23.03L12.16 22.62C12.3058 22.4726 12.4939 22.3741 12.6981 22.3383C12.9024 22.3025 13.1127 22.331 13.3 22.42C13.4951 22.4882 13.6643 22.6152 13.7843 22.7836C13.9043 22.9519 13.9692 23.1533 13.97 23.36V24C13.97 24.2652 14.0754 24.5196 14.2629 24.7071C14.4504 24.8946 14.7048 25 14.97 25H16.97C17.2352 25 17.4896 24.8946 17.6771 24.7071C17.8646 24.5196 17.97 24.2652 17.97 24V23.41C17.9708 23.2033 18.0357 23.0019 18.1557 22.8336C18.2757 22.6652 18.4449 22.5382 18.64 22.47C18.8273 22.381 19.0376 22.3525 19.2419 22.3883C19.4461 22.4241 19.6342 22.5226 19.78 22.67L20.19 23.08C20.283 23.1737 20.3936 23.2481 20.5154 23.2989C20.6373 23.3497 20.768 23.3758 20.9 23.3758C21.032 23.3758 21.1627 23.3497 21.2846 23.2989C21.4064 23.2481 21.517 23.1737 21.61 23.08L23.02 21.67C23.1137 21.577 23.1881 21.4664 23.2389 21.3446C23.2897 21.2227 23.3158 21.092 23.3158 20.96C23.3158 20.828 23.2897 20.6973 23.2389 20.5754C23.1881 20.4536 23.1137 20.343 23.02 20.25L22.61 19.84C22.4626 19.6942 22.3641 19.5061 22.3283 19.3019C22.2925 19.0976 22.321 18.8873 22.41 18.7V18.7C22.4782 18.5049 22.6052 18.3357 22.7736 18.2157C22.9419 18.0957 23.1433 18.0308 23.35 18.03H24C24.2652 18.03 24.5196 17.9246 24.7071 17.7371C24.8946 17.5496 25 17.2952 25 17.03V15C25 14.7348 24.8946 14.4804 24.7071 14.2929C24.5196 14.1054 24.2652 14 24 14Z" stroke="white" stroke-width="2" stroke-linecap="round" stroke-linejoin="round"/>
</svg>
