<svg width="33" height="33" viewBox="0 0 33 33" fill="none" xmlns="http://www.w3.org/2000/svg">
<circle cx="16" cy="16" r="16" fill="#2793FF"/>
<path d="M23.9726 18.5302L23.2526 24.2602C23.2231 24.5041 23.1049 24.7286 22.9205 24.8909C22.736 25.0532 22.4983 25.1419 22.2526 25.1402H10.0226C9.77693 25.1419 9.5392 25.0532 9.35476 24.8909C9.17032 24.7286 9.05209 24.5041 9.02261 24.2602L8.30261 18.5302" stroke="white" stroke-width="2" stroke-linecap="round" stroke-linejoin="round"/>
<path d="M24.4626 18.3701L19.9326 19.8801C17.4723 20.6991 14.8129 20.6991 12.3526 19.8801L7.8226 18.3701C7.61561 18.3006 7.4371 18.1651 7.31431 17.9846C7.19152 17.804 7.13121 17.5882 7.1426 17.3701V11.1401H25.1426V17.4201C25.1431 17.6298 25.0778 17.8343 24.9558 18.0048C24.8337 18.1752 24.6612 18.3031 24.4626 18.3701ZM15.1426 16.1401H17.1426H15.1426ZM21.1426 10.1401C21.1426 9.34449 20.8265 8.58143 20.2639 8.01882C19.7013 7.45621 18.9382 7.14014 18.1426 7.14014H14.1426C13.3469 7.14014 12.5839 7.45621 12.0213 8.01882C11.4587 8.58143 11.1426 9.34449 11.1426 10.1401V11.1401H21.1426V10.1401Z" stroke="white" stroke-width="2" stroke-linecap="round" stroke-linejoin="round"/>
</svg>
