<svg width="32" height="32" viewBox="0 0 32 32" fill="none" xmlns="http://www.w3.org/2000/svg">
<rect width="32" height="32" rx="16" fill="white"/>
<path d="M10.6516 15.5018C10.2153 20.331 15.769 23.2902 19.4389 20.1948C23.1077 17.1009 21.2479 11.0136 16.4987 10.5706V10.5718C15.0787 10.4383 13.6646 10.8823 12.5678 11.8078C11.4711 12.7321 10.7821 14.0621 10.6516 15.5018ZM10.5674 19.7182L11.7737 21.0784L9.86318 22.6939L8.7076 21.2823L10.5674 19.7182ZM10.7267 23.5187L12.7792 21.7849C14.5709 22.8123 16.7355 22.9248 18.6219 22.0895C20.5082 21.253 21.8969 19.566 22.3724 17.5335C22.8481 15.5021 22.354 13.3605 21.0391 11.7533C17.3195 7.21355 10.0143 9.50866 9.47883 15.3921C9.37609 16.5039 9.55156 17.6239 9.9891 18.6477L7.9781 20.3476C7.81071 20.0242 7.66756 19.5486 7.15733 19.6505L4.70304 20.1355C4.28513 18.9617 4.04731 17.7281 4 16.4802L6.44619 15.9952C6.71055 15.9437 6.90796 15.7164 6.92297 15.4434C7.03264 13.7869 7.56944 12.1888 8.48142 10.8101C8.65458 10.5852 8.64419 10.2665 8.45602 10.0533L6.82254 8.14019C7.61908 7.18539 8.55417 6.36063 9.59544 5.69168L11.2289 7.60479C11.7311 8.19171 12.2679 7.34119 14.2617 6.94171C17.7643 6.24466 16.7252 8.14019 18.1242 4C19.3341 4.22376 20.5035 4.6338 21.592 5.21605L20.7873 7.60479C20.5357 8.34401 21.525 8.38738 22.8561 9.93378C25.2018 12.6798 23.0742 12.6962 27.2958 11.8633L27.297 11.8645C27.7149 13.0383 27.9527 14.2719 28 15.5198L25.5538 16.0048C25.2906 16.0587 25.0955 16.2848 25.077 16.5566C24.9766 18.2154 24.4386 19.8157 23.5186 21.1899C23.35 21.4195 23.3604 21.737 23.544 21.9549L25.1775 23.8598C24.7815 24.3378 24.3497 24.7842 23.8868 25.1942L22.4126 26.3083L20.771 24.3952C20.2689 23.8083 19.7321 24.667 17.7383 25.0583C14.2451 25.7553 15.284 23.868 13.8849 28C12.6716 27.7809 11.4987 27.3732 10.4077 26.7922L11.2204 24.3952C11.3797 23.9102 10.978 23.6982 10.7263 23.5201L10.7267 23.5187Z" fill="#2285EB"/>
<path d="M9.86318 22.6939L11.7737 21.0784L12.7792 21.7849L10.7267 23.5187L10.7263 23.5201L9.86318 22.6939Z" fill="#2285EB"/>
<path d="M10.5674 19.7182L8.7076 21.2823L7.9781 20.3476L9.9891 18.6477L10.5674 19.7182Z" fill="#2285EB"/>
</svg>
