<svg width="32" height="32" viewBox="0 0 32 32" fill="none" xmlns="http://www.w3.org/2000/svg">
<path fill-rule="evenodd" clip-rule="evenodd" d="M16 32C12.7674 32 9.75977 31.0407 7.24371 29.3921C4.52828 30.8017 3.13938 31.2358 0.25017 31.2519C0.169232 31.2523 0.0998577 31.2067 0.0679733 31.1321C0.0364393 31.0575 0.0518559 30.9758 0.108267 30.918C2.13941 28.8396 2.56266 27.1763 2.60751 24.7563C0.959334 22.2406 0 19.2326 0 16C0 7.16347 7.16347 0 16 0C24.8365 0 32 7.16347 32 16C32 24.8365 24.8365 32 16 32ZM10.0572 19.7886H7.83269L8.29309 23.1989C8.31657 23.3733 8.40171 23.5153 8.54571 23.6169C8.68972 23.7185 8.85194 23.7514 9.02433 23.7139L9.98857 23.5051C10.2976 23.4382 10.5043 23.1477 10.4626 22.8345L10.0572 19.7886ZM20.0472 8.12106C19.3072 8.12106 18.6941 8.69042 18.6236 9.41255C16.87 10.8148 14.226 11.9454 11.2082 12.4654V18.3735C14.2264 18.8966 16.8717 20.0399 18.6254 21.4421C18.7046 22.1638 19.3209 22.7167 20.0472 22.7167C20.8338 22.7167 21.4775 22.0731 21.4775 21.2865V17.0963C21.5521 17.1065 21.6285 17.1117 21.7059 17.1117C22.6407 17.1117 23.3986 16.3539 23.3986 15.4191C23.3986 14.4843 22.6407 13.7264 21.7059 13.7264C21.6285 13.7264 21.5521 13.7317 21.4775 13.7418V9.55165C21.4775 8.7647 20.8338 8.12106 20.0472 8.12106ZM9.90763 18.4877V12.3501H7.12984C5.44207 12.3501 4.06123 13.731 4.06123 15.4191C4.06123 17.1068 5.44207 18.4877 7.12984 18.4877H9.90763ZM24.1214 19.0714L25.9952 20.153C26.2948 20.3261 26.6788 20.2214 26.8508 19.9218C27.0232 19.6219 26.9188 19.2385 26.6192 19.0658L24.7454 17.9842C24.4459 17.8111 24.0618 17.9159 23.8898 18.2154C23.7174 18.5154 23.8222 18.8987 24.1214 19.0714ZM24.7458 12.854L26.6196 11.7723C26.9188 11.5996 27.0236 11.2163 26.8512 10.9164C26.6792 10.6168 26.2951 10.512 25.9956 10.6851L24.1218 11.7667C23.8225 11.9395 23.7178 12.3228 23.8902 12.6227C24.0622 12.9223 24.4459 13.027 24.7458 12.854ZM25.7913 16.0494H27.8424C28.1907 16.0494 28.4727 15.7673 28.4727 15.4191C28.4727 15.0708 28.1907 14.7887 27.8424 14.7887H25.7913C25.443 14.7887 25.161 15.0708 25.161 15.4191C25.161 15.767 25.443 16.0494 25.7913 16.0494Z" fill="white"/>
</svg>
